<?xml version="1.0" standalone="no"?>
<!DOCTYPE svg PUBLIC "-//W3C//DTD SVG 20010904//EN"
 "http://www.w3.org/TR/2001/REC-SVG-20010904/DTD/svg10.dtd">
<svg version="1.0" xmlns="http://www.w3.org/2000/svg"
 width="48.000000pt" height="32.000000pt" viewBox="0 0 48.000000 32.000000"
 preserveAspectRatio="xMidYMid meet">
<metadata>
Created by potrace 1.16, written by Peter Selinger 2001-2019
</metadata>
<g transform="translate(0.000000,32.000000) scale(0.100000,-0.100000)"
fill="#000000" stroke="none">
<path d="M1 160 l-2 -160 241 0 241 0 -2 159 -2 159 -237 1 -237 2 -2 -161z
m422 125 c-3 -9 -8 -14 -10 -11 -3 3 -2 9 2 15 9 16 15 13 8 -4z m-385 -50
c-3 -3 -9 2 -12 12 -6 14 -5 15 5 6 7 -7 10 -15 7 -18z m382 -30 c-7 -9 -15
-13 -18 -10 -3 2 1 11 8 20 7 9 15 13 18 10 3 -2 -1 -11 -8 -20z m-248 -50 c8
-14 2 -12 -21 9 -17 17 -31 34 -31 39 0 14 39 -23 52 -48z m158 15 c0 -5 -5
-10 -11 -10 -5 0 -7 5 -4 10 3 6 8 10 11 10 2 0 4 -4 4 -10z m-39 -48 c-23
-33 -51 -58 -51 -46 0 8 60 74 68 74 2 0 -6 -13 -17 -28z m-89 -77 c11 -20 11
-20 -11 0 -13 11 -28 29 -33 40 -11 20 -11 20 11 0 13 -11 28 -29 33 -40z m90
3 c-7 -7 -12 -8 -12 -2 0 14 12 26 19 19 2 -3 -1 -11 -7 -17z"/>
</g>
</svg>
