<svg width="260" height="164" fill="none" xmlns="http://www.w3.org/2000/svg"><path fill="#543E57" d="M0 0h260v164H0z"/><rect x="26.5" y="52" width="60" height="60" rx="30" fill="#9975EE"/><path d="M66.5 71h-20a2 2 0 0 0-2 2v7.346c0 11.201 9.477 14.918 11.375 15.549.405.138.845.138 1.25 0 1.9-.631 11.375-4.347 11.375-15.549V73a2 2 0 0 0-2-2zm0 9.349c0 9.802-8.294 13.077-10 13.647-1.691-.563-10-3.836-10-13.647V73h20v7.349z" fill="#fff"/><rect x="75.5" y="52" width="60" height="60" rx="30" fill="#D323E3"/><path d="M104.157 85.74a7.5 7.5 0 1 0-8.313 0 11.978 11.978 0 0 0-5.902 4.714 1 1 0 1 0 1.675 1.092 10 10 0 0 1 16.767 0 1.003 1.003 0 0 0 1.376.28 1 1 0 0 0 .299-1.372 11.976 11.976 0 0 0-5.902-4.714zm-9.656-6.24a5.5 5.5 0 1 1 10.998 0 5.5 5.5 0 0 1-10.998 0zm26.267 12.338a1 1 0 0 1-1.384-.292A9.981 9.981 0 0 0 111.001 87a1.002 1.002 0 0 1-.708-1.707c.188-.188.442-.293.708-.293a5.501 5.501 0 1 0-2.043-10.609 1 1 0 1 1-.742-1.856 7.498 7.498 0 0 1 9.417 3.477 7.503 7.503 0 0 1-2.476 9.728 11.976 11.976 0 0 1 5.902 4.714.998.998 0 0 1-.291 1.384z" fill="#fff"/><rect x="124.5" y="52" width="60" height="60" rx="30" fill="#E9345B"/><path d="M160.75 70c-2.581 0-4.841 1.11-6.25 2.986-1.409-1.876-3.669-2.986-6.25-2.986a7.76 7.76 0 0 0-7.75 7.75c0 8.75 12.974 15.832 13.526 16.125a1.004 1.004 0 0 0 .948 0c.552-.293 13.526-7.375 13.526-16.125a7.76 7.76 0 0 0-7.75-7.75zm-6.25 21.85c-2.283-1.33-12-7.389-12-14.1a5.757 5.757 0 0 1 5.75-5.75c2.431 0 4.472 1.295 5.325 3.375a1.002 1.002 0 0 0 1.482.45c.164-.11.293-.267.368-.45.852-2.084 2.894-3.375 5.325-3.375a5.76 5.76 0 0 1 5.75 5.75c0 6.701-9.72 12.769-12 14.1z" fill="#fff"/><rect x="173.5" y="52" width="60" height="60" rx="30" fill="#19A2EB"/><path d="M214.474 80.771a1.002 1.002 0 0 0-.625-.707l-7.201-2.701 1.832-9.167a.996.996 0 0 0-.526-1.081 1 1 0 0 0-1.185.206l-14 15a1.005 1.005 0 0 0-.249.913.997.997 0 0 0 .624.712l7.204 2.701-1.828 9.157a1.003 1.003 0 0 0 .526 1.081 1.001 1.001 0 0 0 1.185-.206l14-15a1.004 1.004 0 0 0 .243-.908zM201.171 92.75l1.309-6.547a.996.996 0 0 0-.625-1.133l-6.605-2.481 10.578-11.333-1.308 6.548a.996.996 0 0 0 .625 1.132l6.6 2.475-10.574 11.339z" fill="#fff"/></svg>