<svg width="260" height="164" fill="none" xmlns="http://www.w3.org/2000/svg"><path fill="#042F38" d="M0 0h260v164H0z"/><circle cx="165" cy="72" r="1" fill="#BEBEBE"/><circle cx="46" cy="36" r="1" fill="#BEBEBE"/><circle cx="62.5" cy="105.5" r=".5" fill="#BEBEBE"/><circle cx="64.5" cy="99.5" r=".5" fill="#BEBEBE"/><circle cx="56.5" cy="102.5" r=".5" fill="#BEBEBE"/><circle cx="34.25" cy="122.25" r=".25" fill="#BEBEBE"/><circle cx="14.25" cy="100.25" r=".25" fill="#BEBEBE"/><circle cx="39.25" cy="144.25" r=".25" fill="#BEBEBE"/><circle cx="64.25" cy="36.25" r=".25" fill="#BEBEBE"/><circle cx="28.25" cy="31.25" r=".25" fill="#BEBEBE"/><circle cx="15.25" cy="18.25" r=".25" fill="#BEBEBE"/><circle cx="64.25" cy="18.25" r=".25" fill="#BEBEBE"/><circle cx="225.25" cy="73.25" r=".25" fill="#BEBEBE"/><circle cx="222.25" cy="41.25" r=".25" fill="#BEBEBE"/><circle cx="85.5" cy="43.5" r=".5" fill="#BEBEBE"/><circle cx="17.5" cy="15.5" r=".5" fill="#BEBEBE"/><circle cx="5.5" cy="56.5" r=".5" fill="#BEBEBE"/><circle cx="29.5" cy="54.5" r=".5" fill="#BEBEBE"/><circle cx="122.5" cy="26.5" r=".5" fill="#BEBEBE"/><circle cx="225.5" cy="101.5" r=".5" fill="#BEBEBE"/><circle cx="222.5" cy="133.5" r=".5" fill="#BEBEBE"/><circle cx="188.5" cy="157.5" r=".5" fill="#BEBEBE"/><circle cx="72.5" cy="148.5" r=".5" fill="#BEBEBE"/><circle cx="119.5" cy="120.5" r=".5" fill="#BEBEBE"/><circle cx="205.5" cy="62.5" r=".5" fill="#BEBEBE"/><circle cx="228.5" cy="24.5" r=".5" fill="#BEBEBE"/><circle cx="157.5" cy="10.5" r=".5" fill="#BEBEBE"/><circle cx="108.5" cy="11.5" r=".5" fill="#BEBEBE"/><circle cx="112.5" cy="42.5" r=".5" fill="#BEBEBE"/><circle cx="63.5" cy="16.5" r=".5" fill="#BEBEBE"/><circle cx="189" cy="30" r="1" fill="#BEBEBE"/><circle cx="194" cy="124" r="1" fill="#BEBEBE"/><circle cx="228" cy="138" r="1" fill="#BEBEBE"/><circle cx="239" cy="54" r="1" fill="#BEBEBE"/><circle cx="144" cy="147" r="1" fill="#BEBEBE"/><circle cx="22" cy="79" r="1" fill="#BEBEBE"/><circle cx="12" cy="148" r="1" fill="#BEBEBE"/><g filter="url(#a)"><path d="M160.246 88.247a29.494 29.494 0 0 1-10.406 14.881 29.258 29.258 0 0 1-30.652 2.801A29.253 29.253 0 0 1 103 79.75a28.998 28.998 0 0 1 5.873-17.584 29.484 29.484 0 0 1 14.881-10.406 2.248 2.248 0 0 1 2.812 2.813 24.773 24.773 0 0 0 30.881 30.88 2.253 2.253 0 0 1 2.253.56 2.25 2.25 0 0 1 .56 2.253l-.014-.02z" fill="#FFB"/></g><defs><filter id="a" x="60" y="16" width="140" height="140" filterUnits="userSpaceOnUse" color-interpolation-filters="sRGB"><feFlood flood-opacity="0" result="BackgroundImageFix"/><feColorMatrix in="SourceAlpha" values="0 0 0 0 0 0 0 0 0 0 0 0 0 0 0 0 0 0 127 0" result="hardAlpha"/><feOffset dy="4"/><feGaussianBlur stdDeviation="17"/><feComposite in2="hardAlpha" operator="out"/><feColorMatrix values="0 0 0 0 0 0 0 0 0 0 0 0 0 0 0 0 0 0 0.25 0"/><feBlend in2="BackgroundImageFix" result="effect1_dropShadow_5011_36439"/><feBlend in="SourceGraphic" in2="effect1_dropShadow_5011_36439" result="shape"/></filter></defs></svg>