<svg width="260" height="164" fill="none" xmlns="http://www.w3.org/2000/svg"><g clip-path="url(#a)"><path fill="#EFEFEF" d="M0 0h260v164H0z"/><path d="M94.438 36v-9.94h1.89V36h-1.89zm9.156 0v-1.064c-.14.322-.756 1.218-2.1 1.218-1.694 0-3.038-1.386-3.038-3.696 0-2.338 1.344-3.71 3.038-3.71 1.358 0 1.932.896 2.086 1.176v-4.228h1.778V36h-1.764zm.014-3.542c0-1.232-.644-2.142-1.68-2.142-1.05 0-1.652.91-1.652 2.142 0 1.232.602 2.142 1.652 2.142 1.036 0 1.68-.91 1.68-2.142zm6.958-3.724c2.03 0 3.346 1.47 3.346 3.71v.294h-4.942c.056 1.12.672 1.946 1.736 1.946.966 0 1.316-.532 1.428-.686h1.736c-.112.728-.882 2.184-3.164 2.184-2.17 0-3.514-1.582-3.514-3.724 0-2.198 1.316-3.724 3.374-3.724zm0 1.372c-.896 0-1.414.56-1.568 1.456h3.108c-.168-.938-.7-1.456-1.54-1.456zM120.311 36v-1.036c-.14.322-.728 1.19-2.016 1.19-1.694 0-2.968-1.386-2.968-3.696 0-2.31 1.274-3.696 2.968-3.696 1.316 0 1.848.882 2.002 1.176v-1.022h1.778V36h-1.764zm.014-3.542c0-1.246-.574-2.128-1.582-2.128-1.022 0-1.596.882-1.596 2.128 0 1.274.574 2.142 1.596 2.142 1.008 0 1.582-.868 1.582-2.142zm10.752.77-.91-.098c-1.498-.154-2.59-.826-2.59-2.212 0-1.358 1.176-2.198 2.926-2.198 2.422 0 3.08 1.316 3.22 1.974h-1.764c-.07-.14-.518-.616-1.442-.616-.784 0-1.176.308-1.176.742s.336.672 1.008.742l.84.084c1.862.182 2.674.896 2.674 2.296 0 1.344-1.022 2.254-3.024 2.254-2.506 0-3.318-1.442-3.43-2.142h1.82c.07.182.49.756 1.61.756.84 0 1.246-.308 1.246-.77 0-.49-.238-.714-1.008-.812zm6.353 1.736v3.934h-1.764v-9.982h1.764v1.092a2.329 2.329 0 0 1 2.128-1.26c1.68 0 2.996 1.358 2.996 3.71s-1.316 3.696-2.996 3.696a2.38 2.38 0 0 1-2.128-1.19zm-.028-2.506c0 1.246.616 2.142 1.666 2.142 1.05 0 1.666-.896 1.666-2.142 0-1.274-.616-2.142-1.666-2.142-1.05 0-1.666.868-1.666 2.142zM149.022 36v-1.036c-.14.322-.728 1.19-2.016 1.19-1.694 0-2.968-1.386-2.968-3.696 0-2.31 1.274-3.696 2.968-3.696 1.316 0 1.848.882 2.002 1.176v-1.022h1.778V36h-1.764zm.014-3.542c0-1.246-.574-2.128-1.582-2.128-1.022 0-1.596.882-1.596 2.128 0 1.274.574 2.142 1.596 2.142 1.008 0 1.582-.868 1.582-2.142zm5.799-.196V36h-1.778v-7.084h1.778v1.148c.182-.448.756-1.19 2.212-1.19h1.288v1.778h-1.554c-1.4 0-1.946.504-1.946 1.61zM164.68 36l-2.996-3.234V36h-1.764V25.696h1.764v6.146l2.814-2.926h2.24l-3.22 3.304L166.99 36h-2.31z" fill="#000"/><g filter="url(#b)"><rect x="24" y="53" width="212" height="147" rx="7" fill="#fff" shape-rendering="crispEdges"/><rect x="40" y="69" width="77" height="39" rx="6" fill="#F3F4F6"/><path d="M59.543 93v-8.52h6.732v1.404h-5.124v1.992h2.928v1.404h-2.928V93h-1.608zm10.217-6.228c1.776 0 2.988 1.308 2.988 3.192 0 1.86-1.212 3.192-2.988 3.192-1.764 0-2.976-1.332-2.976-3.192 0-1.884 1.212-3.192 2.976-3.192zm0 5.04c.936 0 1.428-.804 1.428-1.848s-.492-1.848-1.428-1.848c-.936 0-1.428.804-1.428 1.848 0 1.02.492 1.848 1.428 1.848zm6.091-2.016V93h-1.523v-6.072h1.523v.984c.156-.384.648-1.02 1.897-1.02h1.103v1.524H77.52c-1.2 0-1.668.432-1.668 1.38zm6.833-3.024c1.74 0 2.868 1.26 2.868 3.18v.252h-4.236c.048.96.576 1.668 1.488 1.668.828 0 1.128-.456 1.224-.588h1.488c-.096.624-.756 1.872-2.712 1.872-1.86 0-3.012-1.356-3.012-3.192 0-1.884 1.128-3.192 2.892-3.192zm0 1.176c-.768 0-1.212.48-1.344 1.248h2.664c-.144-.804-.6-1.248-1.32-1.248zm7.093 2.676-.78-.084c-1.284-.132-2.22-.708-2.22-1.896 0-1.164 1.008-1.884 2.508-1.884 2.076 0 2.64 1.128 2.76 1.692h-1.512c-.06-.12-.444-.528-1.236-.528-.672 0-1.008.264-1.008.636s.288.576.864.636l.72.072c1.596.156 2.292.768 2.292 1.968 0 1.152-.876 1.932-2.592 1.932-2.148 0-2.844-1.236-2.94-1.836h1.56c.06.156.42.648 1.38.648.72 0 1.068-.264 1.068-.66 0-.42-.204-.612-.864-.696zm8.29 1.008V93h-1.511c-1.392 0-2.04-.66-2.04-1.944v-2.82h-1.5v-1.308h1.5V84.48h1.536v2.448h2.016v1.308h-2.016V90.6c0 .708.228 1.032 1.032 1.032h.984z" fill="#000"/><path d="M133.906 88.5a.468.468 0 0 1-.468.469h-2.969v2.969a.47.47 0 0 1-.938 0v-2.97h-2.969a.468.468 0 0 1 0-.937h2.969v-2.969a.47.47 0 0 1 .938 0v2.97h2.969a.468.468 0 0 1 .468.468z" fill="#535146" opacity=".8"/><rect x="143" y="69" width="77" height="39" rx="6" fill="#F3F4F6"/><path d="M160.888 93.144c-2.316 0-3.828-1.848-3.828-4.404 0-2.544 1.524-4.404 3.828-4.404 2.4 0 3.372 1.68 3.504 2.76h-1.572c-.156-.444-.72-1.284-1.932-1.284-1.404 0-2.148 1.332-2.148 2.928 0 1.596.744 2.928 2.148 2.928 1.236 0 1.788-.852 1.944-1.296h1.56c-.096.996-1.068 2.772-3.504 2.772zm7.593-6.372c1.74 0 2.868 1.26 2.868 3.18v.252h-4.236c.048.96.576 1.668 1.488 1.668.828 0 1.128-.456 1.224-.588h1.488c-.096.624-.756 1.872-2.712 1.872-1.86 0-3.012-1.356-3.012-3.192 0-1.884 1.128-3.192 2.892-3.192zm0 1.176c-.768 0-1.212.48-1.344 1.248h2.664c-.144-.804-.6-1.248-1.32-1.248zm5.941 1.848V93h-1.524v-6.072h1.524v.984c.156-.384.648-1.02 1.896-1.02h1.104v1.524h-1.332c-1.2 0-1.668.432-1.668 1.38zM182.658 93v-.888c-.12.276-.624 1.02-1.728 1.02-1.452 0-2.544-1.188-2.544-3.168 0-1.98 1.092-3.168 2.544-3.168 1.128 0 1.584.756 1.716 1.008v-.876h1.524V93h-1.512zm.012-3.036c0-1.068-.492-1.824-1.356-1.824-.876 0-1.368.756-1.368 1.824 0 1.092.492 1.836 1.368 1.836.864 0 1.356-.744 1.356-1.836zm4.971-.42V93h-1.524v-6.072h1.524v.828c.192-.384.768-.96 1.716-.96s1.62.456 1.992 1.176c.216-.468.816-1.176 1.968-1.176 1.44 0 2.328 1.032 2.328 2.472V93h-1.536v-3.456c0-.828-.408-1.38-1.224-1.38-.816 0-1.248.564-1.248 1.38V93h-1.536v-3.456c0-.828-.42-1.38-1.224-1.38-.816 0-1.236.564-1.236 1.38zm9.877-3.588v-1.824h1.596v1.824h-1.596zm.024 7.044v-6.072h1.536V93h-1.536zm8.641-4.128h-1.476c-.096-.204-.372-.756-1.164-.756-.816 0-1.32.792-1.32 1.848s.516 1.848 1.332 1.848c.816 0 1.068-.564 1.164-.756h1.464c-.06.636-.696 2.1-2.664 2.1-1.632 0-2.856-1.308-2.856-3.192 0-1.884 1.212-3.192 2.844-3.192 1.944 0 2.616 1.428 2.676 2.1z" fill="#000"/><path d="M105.504 162.816v2.52c-.384.36-1.088.76-2.184.76-1.672 0-2.744-1.24-2.744-2.944 0-1.664 1.064-2.928 2.592-2.928 1.496 0 2.112 1 2.24 1.464h-.8c-.176-.264-.584-.744-1.44-.744-1.128 0-1.792.968-1.792 2.208 0 1.328.752 2.224 1.944 2.224.712 0 1.2-.176 1.448-.36v-1.504h-1.872v-.696h2.608zm3.034-.872c1.072 0 1.792.816 1.792 2.072v.112h-2.856c.04.736.432 1.304 1.136 1.304s.936-.384 1-.488h.696c-.088.32-.456 1.152-1.696 1.152-1.152 0-1.872-.912-1.872-2.072 0-1.208.704-2.08 1.8-2.08zm0 .624c-.6 0-.936.376-1.04.984h2.064c-.12-.632-.456-.984-1.024-.984zm3.715 1.216V166h-.728v-3.952h.728v.664c.152-.328.52-.752 1.184-.752.92 0 1.52.624 1.52 1.688V166h-.736v-2.216c0-.768-.36-1.152-.96-1.152-.632 0-1.008.408-1.008 1.152zm5.691-1.84c1.072 0 1.792.816 1.792 2.072v.112h-2.856c.04.736.432 1.304 1.136 1.304s.936-.384 1-.488h.696c-.088.32-.456 1.152-1.696 1.152-1.152 0-1.872-.912-1.872-2.072 0-1.208.704-2.08 1.8-2.08zm0 .624c-.6 0-.936.376-1.04.984h2.064c-.12-.632-.456-.984-1.024-.984zm3.715 1.2V166h-.728v-3.952h.728v.712c.104-.296.456-.744 1.344-.744h.76v.728h-.824c-.92 0-1.28.328-1.28 1.024zm5.669 2.232v-.648a1.22 1.22 0 0 1-1.176.744c-.944 0-1.672-.76-1.672-2.064s.728-2.072 1.672-2.072c.776 0 1.064.544 1.176.744v-.656h.728V166h-.728zm.016-1.968c0-.792-.384-1.4-1.056-1.4-.688 0-1.056.608-1.056 1.4 0 .792.368 1.4 1.056 1.4.672 0 1.056-.608 1.056-1.4zm4.885 1.296V166h-.848c-.872 0-1.312-.432-1.312-1.288v-2.008h-1.032v-.656h1.032v-1.728h.728v1.728h1.432v.656h-1.432v1.856c0 .544.168.768.768.768h.664zm2.684-3.384c1.072 0 1.792.816 1.792 2.072v.112h-2.856c.04.736.432 1.304 1.136 1.304s.936-.384 1-.488h.696c-.088.32-.456 1.152-1.696 1.152-1.152 0-1.872-.912-1.872-2.072 0-1.208.704-2.08 1.8-2.08zm0 .624c-.6 0-.936.376-1.04.984h2.064c-.12-.632-.456-.984-1.024-.984zm7.712 3.432v-.648a1.22 1.22 0 0 1-1.176.744c-.944 0-1.672-.76-1.672-2.064s.728-2.072 1.672-2.072c.776 0 1.064.544 1.176.744v-.656h.728V166h-.728zm.016-1.968c0-.792-.384-1.4-1.056-1.4-.688 0-1.056.608-1.056 1.4 0 .792.368 1.4 1.056 1.4.672 0 1.056-.608 1.056-1.4zm5.389-.808h-.712a.993.993 0 0 0-.952-.608c-.632 0-1.048.608-1.048 1.408 0 .792.416 1.408 1.056 1.408a.976.976 0 0 0 .952-.608h.704c-.04.256-.4 1.272-1.656 1.272-1.032 0-1.808-.88-1.808-2.072 0-1.2.768-2.08 1.8-2.08 1.264 0 1.6.992 1.664 1.28zm3.832 2.104V166h-.848c-.872 0-1.312-.432-1.312-1.288v-2.008h-1.032v-.656h1.032v-1.728h.728v1.728h1.432v.656h-1.432v1.856c0 .544.168.768.768.768h.664zm1.132-4.04v-1.144h.76v1.144h-.76zm.016 4.712v-3.952h.728V166h-.728zm5.546-3.952-1.592 4.024h-.648l-1.632-4.024h.816l1.152 2.984 1.152-2.984h.752zm.93-.76v-1.144h.76v1.144h-.76zm.016 4.712v-3.952h.728V166h-.728zm4.915-.672V166h-.848c-.872 0-1.312-.432-1.312-1.288v-2.008h-1.032v-.656h1.032v-1.728h.728v1.728h1.432v.656h-1.432v1.856c0 .544.168.768.768.768h.664zm1.131-4.04v-1.144h.76v1.144h-.76zm.016 4.712v-3.952h.728V166h-.728zm3.755-4.056c1.072 0 1.792.816 1.792 2.072v.112h-2.856c.04.736.432 1.304 1.136 1.304s.936-.384 1-.488h.696c-.088.32-.456 1.152-1.696 1.152-1.152 0-1.872-.912-1.872-2.072 0-1.208.704-2.08 1.8-2.08zm0 .624c-.6 0-.936.376-1.04.984h2.064c-.12-.632-.456-.984-1.024-.984zm4.667 1.792-.568-.064c-.776-.088-1.32-.456-1.32-1.184 0-.704.624-1.176 1.52-1.176 1.296 0 1.632.744 1.736 1.064h-.72c-.064-.08-.344-.432-1.016-.432-.544 0-.808.224-.808.512 0 .296.232.464.704.52l.552.064c.936.12 1.352.528 1.352 1.24 0 .688-.544 1.208-1.56 1.208-1.336 0-1.808-.816-1.872-1.176h.744c.064.104.32.528 1.128.528.568 0 .832-.216.832-.528 0-.344-.184-.52-.704-.576z" fill="#fff"/><g filter="url(#c)"><rect x="40" y="120" width="180" height="31" rx="6" fill="#A855F7"/><path d="M92.397 135.104v3.972c-.492.456-1.608 1.08-3.336 1.08-2.628 0-4.284-1.8-4.284-4.44 0-2.556 1.644-4.392 4.02-4.392 2.376 0 3.324 1.536 3.48 2.34h-1.62c-.18-.312-.732-.924-1.848-.924-1.488 0-2.376 1.248-2.376 2.976 0 1.788.984 3.024 2.628 3.024.912 0 1.512-.216 1.8-.408v-1.884h-2.496v-1.344h4.032zm4.527-1.332c1.74 0 2.868 1.26 2.868 3.18v.252h-4.236c.048.96.576 1.668 1.488 1.668.828 0 1.128-.456 1.224-.588h1.488c-.096.624-.756 1.872-2.712 1.872-1.86 0-3.012-1.356-3.012-3.192 0-1.884 1.128-3.192 2.892-3.192zm0 1.176c-.768 0-1.212.48-1.344 1.248h2.664c-.144-.804-.6-1.248-1.32-1.248zm5.941 1.656V140h-1.524v-6.072h1.524v.876a1.992 1.992 0 0 1 1.776-1.008c1.392 0 2.292.96 2.292 2.532V140h-1.536v-3.396c0-.948-.48-1.44-1.248-1.44-.816 0-1.284.528-1.284 1.44zm8.496-2.832c1.74 0 2.868 1.26 2.868 3.18v.252h-4.236c.048.96.576 1.668 1.488 1.668.828 0 1.128-.456 1.224-.588h1.488c-.096.624-.756 1.872-2.712 1.872-1.86 0-3.012-1.356-3.012-3.192 0-1.884 1.128-3.192 2.892-3.192zm0 1.176c-.768 0-1.212.48-1.344 1.248h2.664c-.144-.804-.6-1.248-1.32-1.248zm5.942 1.848V140h-1.524v-6.072h1.524v.984c.156-.384.648-1.02 1.896-1.02h1.104v1.524h-1.332c-1.2 0-1.668.432-1.668 1.38zm8.236 3.204v-.888c-.12.276-.624 1.02-1.728 1.02-1.452 0-2.544-1.188-2.544-3.168 0-1.98 1.092-3.168 2.544-3.168 1.128 0 1.584.756 1.716 1.008v-.876h1.524V140h-1.512zm.012-3.036c0-1.068-.492-1.824-1.356-1.824-.876 0-1.368.756-1.368 1.824 0 1.092.492 1.836 1.368 1.836.864 0 1.356-.744 1.356-1.836zm7.862 1.668V140h-1.512c-1.392 0-2.04-.66-2.04-1.944v-2.82h-1.5v-1.308h1.5v-2.448h1.536v2.448h2.016v1.308h-2.016v2.364c0 .708.228 1.032 1.032 1.032h.984zm4.07-4.86c1.74 0 2.868 1.26 2.868 3.18v.252h-4.236c.048.96.576 1.668 1.488 1.668.828 0 1.128-.456 1.224-.588h1.488c-.096.624-.756 1.872-2.712 1.872-1.86 0-3.012-1.356-3.012-3.192 0-1.884 1.128-3.192 2.892-3.192zm0 1.176c-.768 0-1.212.48-1.344 1.248h2.664c-.144-.804-.6-1.248-1.32-1.248zm7.486-1.992v-1.824h1.596v1.824h-1.596zm.024 7.044v-6.072h1.536V140h-1.536zm7.549 0v-.912c-.12.276-.648 1.044-1.8 1.044-1.452 0-2.604-1.188-2.604-3.168 0-2.004 1.152-3.18 2.604-3.18 1.164 0 1.656.768 1.788 1.008v-3.624h1.524V140h-1.512zm.012-3.036c0-1.056-.552-1.836-1.44-1.836-.9 0-1.416.78-1.416 1.836s.516 1.836 1.416 1.836c.888 0 1.44-.78 1.44-1.836zm5.964-3.192c1.74 0 2.868 1.26 2.868 3.18v.252h-4.236c.048.96.576 1.668 1.488 1.668.828 0 1.128-.456 1.224-.588h1.488c-.096.624-.756 1.872-2.712 1.872-1.86 0-3.012-1.356-3.012-3.192 0-1.884 1.128-3.192 2.892-3.192zm0 1.176c-.768 0-1.212.48-1.344 1.248h2.664c-.144-.804-.6-1.248-1.32-1.248zm8.353 5.052v-.888c-.12.276-.624 1.02-1.728 1.02-1.452 0-2.544-1.188-2.544-3.168 0-1.98 1.092-3.168 2.544-3.168 1.128 0 1.584.756 1.716 1.008v-.876h1.524V140h-1.512zm.012-3.036c0-1.068-.492-1.824-1.356-1.824-.876 0-1.368.756-1.368 1.824 0 1.092.492 1.836 1.368 1.836.864 0 1.356-.744 1.356-1.836zm6.122.66-.78-.084c-1.284-.132-2.22-.708-2.22-1.896 0-1.164 1.008-1.884 2.508-1.884 2.076 0 2.64 1.128 2.76 1.692h-1.512c-.06-.12-.444-.528-1.236-.528-.672 0-1.008.264-1.008.636s.288.576.864.636l.72.072c1.596.156 2.292.768 2.292 1.968 0 1.152-.876 1.932-2.592 1.932-2.148 0-2.844-1.236-2.94-1.836h1.56c.06.156.42.648 1.38.648.72 0 1.068-.264 1.068-.66 0-.42-.204-.612-.864-.696z" fill="#fff"/></g></g></g><defs><filter id="b" x="4" y="33" width="252" height="187" filterUnits="userSpaceOnUse" color-interpolation-filters="sRGB"><feFlood flood-opacity="0" result="BackgroundImageFix"/><feColorMatrix in="SourceAlpha" values="0 0 0 0 0 0 0 0 0 0 0 0 0 0 0 0 0 0 127 0" result="hardAlpha"/><feOffset/><feGaussianBlur stdDeviation="10"/><feComposite in2="hardAlpha" operator="out"/><feColorMatrix values="0 0 0 0 0 0 0 0 0 0 0 0 0 0 0 0 0 0 0.04 0"/><feBlend in2="BackgroundImageFix" result="effect1_dropShadow_4789_11960"/><feBlend in="SourceGraphic" in2="effect1_dropShadow_4789_11960" result="shape"/></filter><filter id="c" x="21.8" y="105.44" width="216.4" height="67.4" filterUnits="userSpaceOnUse" color-interpolation-filters="sRGB"><feFlood flood-opacity="0" result="BackgroundImageFix"/><feColorMatrix in="SourceAlpha" values="0 0 0 0 0 0 0 0 0 0 0 0 0 0 0 0 0 0 127 0" result="hardAlpha"/><feOffset dy="3.64"/><feGaussianBlur stdDeviation="9.1"/><feComposite in2="hardAlpha" operator="out"/><feColorMatrix values="0 0 0 0 0 0 0 0 0 0 0 0 0 0 0 0 0 0 0.04 0"/><feBlend in2="BackgroundImageFix" result="effect1_dropShadow_4789_11960"/><feBlend in="SourceGraphic" in2="effect1_dropShadow_4789_11960" result="shape"/></filter><clipPath id="a"><path fill="#fff" d="M0 0h260v164H0z"/></clipPath></defs></svg>