<svg width="260" height="164" fill="none" xmlns="http://www.w3.org/2000/svg"><g clip-path="url(#a)"><path fill="#3D3782" d="M0 0h260v164H0z"/><circle cx="37.211" cy="2.008" r="12.957" fill="#2B2E69" stroke="#263FA9" stroke-width="2.508"/><circle cx="68.141" cy="2.008" r="12.957" fill="#2B2E69" stroke="#263FA9" stroke-width="2.508"/><circle cx="99.07" cy="2.008" r="12.957" fill="#2B2E69" stroke="#263FA9" stroke-width="2.508"/><circle cx="130" cy="2.008" r="12.957" fill="#2B2E69" stroke="#263FA9" stroke-width="2.508"/><circle cx="160.93" cy="2.008" r="12.957" fill="#2B2E69" stroke="#263FA9" stroke-width="2.508"/><circle cx="191.859" cy="2.008" r="12.957" fill="#2B2E69" stroke="#263FA9" stroke-width="2.508"/><circle cx="222.789" cy="2.008" r="12.957" fill="#2B2E69" stroke="#263FA9" stroke-width="2.508"/><circle cx="37.211" cy="32.938" r="12.957" fill="#2B2E69" stroke="#263FA9" stroke-width="2.508"/><circle cx="68.141" cy="32.938" r="12.957" fill="#2B2E69" stroke="#263FA9" stroke-width="2.508"/><circle cx="99.07" cy="32.938" r="12.957" fill="#2B2E69" stroke="#263FA9" stroke-width="2.508"/><circle cx="130" cy="32.938" r="12.957" fill="#2B2E69" stroke="#263FA9" stroke-width="2.508"/><circle cx="160.93" cy="32.938" r="14.211" fill="#FD2D5F"/><circle cx="191.859" cy="32.938" r="12.957" fill="#2B2E69" stroke="#263FA9" stroke-width="2.508"/><circle cx="222.789" cy="32.938" r="12.957" fill="#2B2E69" stroke="#263FA9" stroke-width="2.508"/><circle cx="37.211" cy="63.867" r="12.957" fill="#2B2E69" stroke="#263FA9" stroke-width="2.508"/><circle cx="68.141" cy="63.867" r="12.957" fill="#2B2E69" stroke="#263FA9" stroke-width="2.508"/><circle opacity=".5" cx="99.07" cy="63.867" r="12.957" fill="#EDA63F" stroke="#ED981C" stroke-width="2.508"/><circle cx="130" cy="63.867" r="14.211" fill="#FD2D5F"/><circle opacity=".5" cx="160.93" cy="63.867" r="12.957" fill="#EDA63F" stroke="#ED981C" stroke-width="2.508"/><circle cx="191.859" cy="63.867" r="12.957" fill="#2B2E69" stroke="#263FA9" stroke-width="2.508"/><circle cx="222.789" cy="63.867" r="12.957" fill="#2B2E69" stroke="#263FA9" stroke-width="2.508"/><circle cx="37.211" cy="94.797" r="12.957" fill="#2B2E69" stroke="#263FA9" stroke-width="2.508"/><circle opacity=".5" cx="68.141" cy="94.797" r="12.957" fill="#E16885" stroke="#ED567A" stroke-width="2.508"/><circle cx="99.07" cy="94.797" r="14.211" fill="#FD2D5F"/><circle opacity=".5" cx="130" cy="94.797" r="12.957" fill="#EDA63F" stroke="#ED981C" stroke-width="2.508"/><circle opacity=".5" cx="160.93" cy="94.797" r="12.957" fill="#EDA63F" stroke="#ED981C" stroke-width="2.508"/><circle cx="191.859" cy="94.797" r="12.957" fill="#2B2E69" stroke="#263FA9" stroke-width="2.508"/><circle cx="222.789" cy="94.797" r="12.957" fill="#2B2E69" stroke="#263FA9" stroke-width="2.508"/><circle cx="37.211" cy="125.727" r="12.957" fill="#2B2E69" stroke="#263FA9" stroke-width="2.508"/><circle cx="68.141" cy="125.727" r="14.211" fill="#FD2D5F"/><circle opacity=".5" cx="99.07" cy="125.727" r="12.957" fill="#EDA63F" stroke="#ED981C" stroke-width="2.508"/><circle opacity=".5" cx="130" cy="125.727" r="12.957" fill="#EDA63F" stroke="#ED981C" stroke-width="2.508"/><circle opacity=".5" cx="160.93" cy="125.727" r="12.957" fill="#E16885" stroke="#ED567A" stroke-width="2.508"/><circle opacity=".5" cx="191.859" cy="125.727" r="12.957" fill="#EDA63F" stroke="#ED981C" stroke-width="2.508"/><circle cx="222.789" cy="125.727" r="12.957" fill="#2B2E69" stroke="#263FA9" stroke-width="2.508"/><circle cx="37.211" cy="156.656" r="12.957" fill="#2B2E69" stroke="#263FA9" stroke-width="2.508"/><circle cx="68.141" cy="156.656" r="12.957" fill="#2B2E69" stroke="#263FA9" stroke-width="2.508"/><circle cx="99.07" cy="156.656" r="12.957" fill="#2B2E69" stroke="#263FA9" stroke-width="2.508"/><circle cx="130" cy="156.656" r="12.957" fill="#2B2E69" stroke="#263FA9" stroke-width="2.508"/><circle cx="160.93" cy="156.656" r="12.957" fill="#2B2E69" stroke="#263FA9" stroke-width="2.508"/><circle cx="191.859" cy="156.656" r="12.957" fill="#2B2E69" stroke="#263FA9" stroke-width="2.508"/><circle cx="222.789" cy="156.656" r="12.957" fill="#2B2E69" stroke="#263FA9" stroke-width="2.508"/><rect x="41.415" y="126.792" width="169.204" height="35.63" rx="17.815" transform="rotate(-45 41.415 126.792)" stroke="#fff" stroke-width="3.476"/></g><defs><clipPath id="a"><path fill="#fff" d="M0 0h260v164H0z"/></clipPath></defs></svg>