<svg width="260" height="164" fill="none" xmlns="http://www.w3.org/2000/svg"><path fill="#CDE6B2" d="M0 0h260v164H0z"/><path d="m48.628 21.06 2.534 7.014 2.548-7.014h2.744V31h-1.82v-8.05l-2.926 8.092h-1.274l-2.912-8.022V31h-1.736v-9.94h2.842zm13.286 2.674c2.03 0 3.346 1.47 3.346 3.71v.294h-4.942c.056 1.12.672 1.946 1.736 1.946.966 0 1.316-.532 1.428-.686h1.736c-.112.728-.882 2.184-3.164 2.184-2.17 0-3.514-1.582-3.514-3.724 0-2.198 1.316-3.724 3.374-3.724zm0 1.372c-.896 0-1.414.56-1.568 1.456h3.108c-.168-.938-.7-1.456-1.54-1.456zm8.108-1.372c2.03 0 3.346 1.47 3.346 3.71v.294h-4.942c.056 1.12.672 1.946 1.736 1.946.966 0 1.316-.532 1.428-.686h1.736c-.112.728-.882 2.184-3.164 2.184-2.17 0-3.514-1.582-3.514-3.724 0-2.198 1.316-3.724 3.374-3.724zm0 1.372c-.896 0-1.414.56-1.568 1.456h3.108c-.168-.938-.7-1.456-1.54-1.456zm10.168 4.298V31h-1.764c-1.624 0-2.38-.77-2.38-2.268v-3.29h-1.75v-1.526h1.75V21.06h1.792v2.856h2.352v1.526h-2.352V28.2c0 .826.266 1.204 1.204 1.204h1.148zm1.766-6.622v-2.128h1.862v2.128h-1.862zM81.984 31v-7.084h1.792V31h-1.792zm5.838-3.962V31h-1.778v-7.084h1.778v1.022c.266-.49.938-1.176 2.072-1.176 1.624 0 2.674 1.12 2.674 2.954V31h-1.792v-3.962c0-1.106-.56-1.68-1.456-1.68-.952 0-1.498.616-1.498 1.68zm11.62 3.766v-.91c-.153.224-.741 1.232-2.057 1.232-1.639 0-2.997-1.386-2.997-3.682 0-2.31 1.358-3.682 2.996-3.682 1.302 0 1.89.952 2.044 1.218v-1.064h1.778v6.874c0 1.946-1.092 3.262-3.43 3.262-2.394 0-3.206-1.512-3.317-2.072h1.931c.07.112.42.602 1.386.602 1.106 0 1.666-.644 1.666-1.778zm.015-3.36c0-1.246-.644-2.128-1.61-2.128-1.008 0-1.638.882-1.638 2.128 0 1.218.63 2.114 1.638 2.114.952 0 1.61-.896 1.61-2.114zm9.393-.406V31h-1.778v-7.084h1.778v1.022c.266-.49.938-1.176 2.072-1.176 1.624 0 2.674 1.12 2.674 2.954V31h-1.792v-3.962c0-1.106-.56-1.68-1.456-1.68-.952 0-1.498.616-1.498 1.68zm10.01-3.304c2.072 0 3.486 1.526 3.486 3.724 0 2.17-1.414 3.724-3.486 3.724-2.058 0-3.472-1.554-3.472-3.724 0-2.198 1.414-3.724 3.472-3.724zm0 5.88c1.092 0 1.666-.938 1.666-2.156 0-1.218-.574-2.156-1.666-2.156s-1.666.938-1.666 2.156c0 1.19.574 2.156 1.666 2.156zm10.412-.21V31h-1.764c-1.624 0-2.38-.77-2.38-2.268v-3.29h-1.75v-1.526h1.75V21.06h1.792v2.856h2.352v1.526h-2.352V28.2c0 .826.266 1.204 1.204 1.204h1.148zm4.748-5.67c2.03 0 3.346 1.47 3.346 3.71v.294h-4.942c.056 1.12.672 1.946 1.736 1.946.966 0 1.316-.532 1.428-.686h1.736c-.112.728-.882 2.184-3.164 2.184-2.17 0-3.514-1.582-3.514-3.724 0-2.198 1.316-3.724 3.374-3.724zm0 1.372c-.896 0-1.414.56-1.568 1.456h3.108c-.168-.938-.7-1.456-1.54-1.456zm8.275 3.122-.91-.098c-1.498-.154-2.59-.826-2.59-2.212 0-1.358 1.176-2.198 2.926-2.198 2.422 0 3.08 1.316 3.22 1.974h-1.764c-.07-.14-.518-.616-1.442-.616-.784 0-1.176.308-1.176.742s.336.672 1.008.742l.84.084c1.862.182 2.674.896 2.674 2.296 0 1.344-1.022 2.254-3.024 2.254-2.506 0-3.318-1.442-3.43-2.142h1.82c.07.182.49.756 1.61.756.84 0 1.246-.308 1.246-.77 0-.49-.238-.714-1.008-.812zm11.32 0-.91-.098c-1.498-.154-2.59-.826-2.59-2.212 0-1.358 1.176-2.198 2.926-2.198 2.422 0 3.08 1.316 3.22 1.974h-1.764c-.07-.14-.518-.616-1.442-.616-.784 0-1.176.308-1.176.742s.336.672 1.008.742l.84.084c1.862.182 2.674.896 2.674 2.296 0 1.344-1.022 2.254-3.024 2.254-2.506 0-3.318-1.442-3.43-2.142h1.82c.07.182.49.756 1.61.756.84 0 1.246-.308 1.246-.77 0-.49-.238-.714-1.008-.812zm7.767 2.926c-2.156 0-3.234-1.246-3.234-3.08v-4.158h1.792v4.06c0 .896.476 1.512 1.428 1.512.938 0 1.442-.616 1.442-1.512v-4.06h1.764v4.158c0 1.736-1.092 3.08-3.192 3.08zm7.186-4.186V31h-1.778v-7.084h1.778v.966c.224-.448.896-1.12 2.002-1.12 1.106 0 1.89.532 2.324 1.372.252-.546.952-1.372 2.296-1.372 1.68 0 2.716 1.204 2.716 2.884V31h-1.792v-4.032c0-.966-.476-1.61-1.428-1.61s-1.456.658-1.456 1.61V31h-1.792v-4.032c0-.966-.49-1.61-1.428-1.61-.952 0-1.442.658-1.442 1.61zm13.33 0V31h-1.778v-7.084h1.778v.966c.224-.448.896-1.12 2.002-1.12 1.106 0 1.89.532 2.324 1.372.252-.546.952-1.372 2.296-1.372 1.68 0 2.716 1.204 2.716 2.884V31h-1.792v-4.032c0-.966-.476-1.61-1.428-1.61s-1.456.658-1.456 1.61V31h-1.792v-4.032c0-.966-.49-1.61-1.428-1.61-.952 0-1.442.658-1.442 1.61zM198.042 31v-1.036c-.14.322-.728 1.19-2.016 1.19-1.694 0-2.968-1.386-2.968-3.696 0-2.31 1.274-3.696 2.968-3.696 1.316 0 1.848.882 2.002 1.176v-1.022h1.778V31h-1.764zm.014-3.542c0-1.246-.574-2.128-1.582-2.128-1.022 0-1.596.882-1.596 2.128 0 1.274.574 2.142 1.596 2.142 1.008 0 1.582-.868 1.582-2.142zm5.799-.196V31h-1.778v-7.084h1.778v1.148c.182-.448.756-1.19 2.212-1.19h1.288v1.778h-1.554c-1.4 0-1.946.504-1.946 1.61zm11.526-3.346-3.836 9.982h-1.792l1.148-2.968-2.884-7.014h1.988l1.792 4.676 1.778-4.676h1.806z" fill="#374528"/><rect x="24" y="51" width="76" height="95" rx="7" fill="#fff" fill-opacity=".8"/><path d="M37.052 96v-5.68h2.56c1.208 0 1.864.544 1.864 1.56 0 .824-.432 1.328-1.232 1.496L41.74 96h-.84l-1.488-2.56h-1.584V96h-.776zm2.552-4.96h-1.776v1.688h1.776c.696 0 1.072-.264 1.072-.848 0-.576-.376-.84-1.072-.84zm5.92 4.96v-.648a1.22 1.22 0 0 1-1.176.744c-.944 0-1.672-.76-1.672-2.064s.728-2.072 1.672-2.072c.776 0 1.064.544 1.176.744v-.656h.728V96h-.728zm.016-1.968c0-.792-.384-1.4-1.056-1.4-.688 0-1.056.608-1.056 1.4 0 .792.368 1.4 1.056 1.4.672 0 1.056-.608 1.056-1.4zm5.708 2-1.016-3-1.016 3h-.648l-1.36-3.984h.784l.952 2.92.984-2.952h.672l.976 2.912.936-2.88h.72l-1.344 3.984h-.64zm5.786-2.304V96h-.728v-3.952h.728v.616a1.21 1.21 0 0 1 1.136-.704c.664 0 1.128.328 1.36.84.144-.336.512-.84 1.272-.84.976 0 1.544.696 1.544 1.632V96h-.736v-2.272c0-.664-.312-1.096-.952-1.096-.632 0-.968.456-.968 1.096V96h-.736v-2.272c0-.664-.328-1.096-.96-1.096-.632 0-.96.456-.96 1.096zm8.293-1.784c1.072 0 1.792.816 1.792 2.072v.112h-2.856c.04.736.432 1.304 1.136 1.304s.936-.384 1-.488h.696c-.088.32-.456 1.152-1.696 1.152-1.152 0-1.872-.912-1.872-2.072 0-1.208.704-2.08 1.8-2.08zm0 .624c-.6 0-.936.376-1.04.984h2.064c-.12-.632-.456-.984-1.024-.984zm4.531-.624c1.072 0 1.792.816 1.792 2.072v.112h-2.856c.04.736.432 1.304 1.136 1.304s.936-.384 1-.488h.696c-.088.32-.456 1.152-1.696 1.152-1.152 0-1.872-.912-1.872-2.072 0-1.208.704-2.08 1.8-2.08zm0 .624c-.6 0-.936.376-1.04.984h2.064c-.12-.632-.456-.984-1.024-.984zm5.613 2.76V96h-.848c-.872 0-1.312-.432-1.312-1.288v-2.008H72.28v-.656h1.032V90.32h.728v1.728h1.432v.656H74.04v1.856c0 .544.168.768.768.768h.664zm1.132-4.04v-1.144h.76v1.144h-.76zM76.619 96v-3.952h.728V96h-.728zm2.939-2.216V96h-.728v-3.952h.728v.664c.152-.328.52-.752 1.184-.752.92 0 1.52.624 1.52 1.688V96h-.736v-2.216c0-.768-.36-1.152-.96-1.152-.632 0-1.008.408-1.008 1.152zm6.803 2.128v-.536c-.08.16-.44.728-1.192.728-.928 0-1.704-.768-1.704-2.072 0-1.312.776-2.08 1.704-2.08.76 0 1.08.552 1.192.752v-.656h.728v3.864c0 1.128-.584 1.896-1.832 1.896-1.304 0-1.712-.832-1.752-1.112h.768c.04.064.272.448.984.448.744 0 1.104-.432 1.104-1.232zm.016-1.88c0-.8-.424-1.408-1.072-1.408-.664 0-1.088.608-1.088 1.408 0 .792.424 1.4 1.088 1.4.648 0 1.072-.608 1.072-1.4zm-34.01 10.752V107h-.729v-3.952h.728v.664c.152-.328.52-.752 1.184-.752.92 0 1.52.624 1.52 1.688V107h-.736v-2.216c0-.768-.36-1.152-.96-1.152-.632 0-1.008.408-1.008 1.152zm5.746-1.832c1.12 0 1.856.896 1.856 2.072 0 1.176-.736 2.072-1.856 2.072s-1.856-.896-1.856-2.072c0-1.176.736-2.072 1.856-2.072zm0 3.472c.72 0 1.104-.624 1.104-1.4 0-.776-.384-1.4-1.104-1.4-.72 0-1.104.624-1.104 1.4 0 .776.376 1.4 1.104 1.4zm5.737-.096V107h-.848c-.872 0-1.312-.432-1.312-1.288v-2.008h-1.032v-.656h1.032v-1.728h.728v1.728h1.432v.656h-1.432v1.856c0 .544.168.768.768.768h.664zm2.684-3.384c1.072 0 1.792.816 1.792 2.072v.112H65.47c.04.736.432 1.304 1.136 1.304s.936-.384 1-.488h.696c-.088.32-.456 1.152-1.696 1.152-1.152 0-1.872-.912-1.872-2.072 0-1.208.704-2.08 1.8-2.08zm0 .624c-.6 0-.936.376-1.04.984h2.064c-.12-.632-.456-.984-1.024-.984zm4.667 1.792-.568-.064c-.776-.088-1.32-.456-1.32-1.184 0-.704.624-1.176 1.52-1.176 1.296 0 1.632.744 1.736 1.064h-.72c-.064-.08-.344-.432-1.016-.432-.544 0-.808.224-.808.512 0 .296.232.464.704.52l.552.064c.936.12 1.352.528 1.352 1.24 0 .688-.544 1.208-1.56 1.208-1.336 0-1.808-.816-1.872-1.176h.744c.064.104.32.528 1.128.528.568 0 .832-.216.832-.528 0-.344-.184-.52-.704-.576z" fill="#000"/><path d="M107 98a.5.5 0 0 0 0 1v-1zm9.354.854a.5.5 0 0 0 0-.708l-3.182-3.181a.501.501 0 0 0-.708.707l2.829 2.828-2.829 2.828a.502.502 0 0 0 .708.708l3.182-3.182zM107 98.5v.5h9v-1h-9v.5z" fill="#374528"/><rect x="123" y="51" width="113" height="95" rx="7" fill="#fff"/><path d="M160.038 90.936c-.8 0-1.248.336-1.248.848 0 .528.472.752 1.08.84l.752.112c.936.152 1.848.488 1.848 1.648 0 .96-.784 1.72-2.104 1.72-1.624 0-2.336-.896-2.552-1.688h.824c.152.384.608.976 1.728.976.8 0 1.328-.384 1.328-.968 0-.64-.504-.832-1.136-.936l-.752-.112c-1.024-.152-1.792-.544-1.792-1.592 0-.96.848-1.56 2.024-1.56 1.472 0 2.128.784 2.304 1.472h-.8c-.184-.336-.6-.76-1.504-.76zm6.363 4.392V96h-.848c-.872 0-1.312-.432-1.312-1.288v-2.008h-1.032v-.656h1.032V90.32h.728v1.728h1.432v.656h-1.432v1.856c0 .544.168.768.768.768h.664zm1.868-1.56V96h-.728v-3.952h.728v.712c.104-.296.456-.744 1.344-.744h.76v.728h-.824c-.92 0-1.28.328-1.28 1.024zm4.764 2.312c-1.12 0-1.696-.664-1.696-1.648v-2.384h.736v2.344c0 .6.32 1 .96 1 .616 0 .96-.4.96-1v-2.344h.72v2.384c0 .896-.592 1.648-1.68 1.648zm6.325-2.856h-.712a.993.993 0 0 0-.952-.608c-.632 0-1.048.608-1.048 1.408 0 .792.416 1.408 1.056 1.408a.976.976 0 0 0 .952-.608h.704c-.04.256-.4 1.272-1.656 1.272-1.032 0-1.808-.88-1.808-2.072 0-1.2.768-2.08 1.8-2.08 1.264 0 1.6.992 1.664 1.28zm3.832 2.104V96h-.848c-.872 0-1.312-.432-1.312-1.288v-2.008h-1.032v-.656h1.032V90.32h.728v1.728h1.432v.656h-1.432v1.856c0 .544.168.768.768.768h.664zm2.804.752c-1.12 0-1.696-.664-1.696-1.648v-2.384h.736v2.344c0 .6.32 1 .96 1 .616 0 .96-.4.96-1v-2.344h.72v2.384c0 .896-.592 1.648-1.68 1.648zm3.845-2.312V96h-.728v-3.952h.728v.712c.104-.296.456-.744 1.344-.744h.76v.728h-.824c-.92 0-1.28.328-1.28 1.024zm4.605-1.824c1.072 0 1.792.816 1.792 2.072v.112h-2.856c.04.736.432 1.304 1.136 1.304s.936-.384 1-.488h.696c-.088.32-.456 1.152-1.696 1.152-1.152 0-1.872-.912-1.872-2.072 0-1.208.704-2.08 1.8-2.08zm0 .624c-.6 0-.936.376-1.04.984h2.064c-.12-.632-.456-.984-1.024-.984zM200.135 96v-.672a1.285 1.285 0 0 1-1.224.768c-.952 0-1.72-.768-1.72-2.072 0-1.312.768-2.08 1.72-2.08.784 0 1.112.552 1.224.752v-2.584h.728V96h-.728zm.016-1.976c0-.8-.424-1.408-1.112-1.408-.68 0-1.096.608-1.096 1.408 0 .792.416 1.408 1.096 1.408.688 0 1.112-.616 1.112-1.408zm-36.715 11.336-.568-.064c-.776-.088-1.32-.456-1.32-1.184 0-.704.624-1.176 1.52-1.176 1.296 0 1.632.744 1.736 1.064h-.72c-.064-.08-.344-.432-1.016-.432-.544 0-.808.224-.808.512 0 .296.232.464.704.52l.552.064c.936.12 1.352.528 1.352 1.24 0 .688-.544 1.208-1.56 1.208-1.336 0-1.808-.816-1.872-1.176h.744c.064.104.32.528 1.128.528.568 0 .832-.216.832-.528 0-.344-.184-.52-.704-.576zm4.296 1.72c-1.12 0-1.696-.664-1.696-1.648v-2.384h.736v2.344c0 .6.32 1 .96 1 .616 0 .96-.4.96-1v-2.344h.72v2.384c0 .896-.592 1.648-1.68 1.648zm3.845-2.352V107h-.728v-3.952h.728v.616a1.21 1.21 0 0 1 1.136-.704c.664 0 1.128.328 1.36.84.144-.336.512-.84 1.272-.84.976 0 1.544.696 1.544 1.632V107h-.736v-2.272c0-.664-.312-1.096-.952-1.096-.632 0-.968.456-.968 1.096V107h-.736v-2.272c0-.664-.328-1.096-.96-1.096-.632 0-.96.456-.96 1.096zm7.477 0V107h-.728v-3.952h.728v.616a1.21 1.21 0 0 1 1.136-.704c.664 0 1.128.328 1.36.84.144-.336.512-.84 1.272-.84.976 0 1.544.696 1.544 1.632V107h-.736v-2.272c0-.664-.312-1.096-.952-1.096-.632 0-.968.456-.968 1.096V107h-.736v-2.272c0-.664-.328-1.096-.96-1.096-.632 0-.96.456-.96 1.096zM188.41 107v-.648a1.22 1.22 0 0 1-1.176.744c-.944 0-1.672-.76-1.672-2.064s.728-2.072 1.672-2.072c.776 0 1.064.544 1.176.744v-.656h.728V107h-.728zm.016-1.968c0-.792-.384-1.4-1.056-1.4-.688 0-1.056.608-1.056 1.4 0 .792.368 1.4 1.056 1.4.672 0 1.056-.608 1.056-1.4zm2.909-.264V107h-.728v-3.952h.728v.712c.104-.296.456-.744 1.344-.744h.76v.728h-.824c-.92 0-1.28.328-1.28 1.024zm6.444-1.72-2.264 5.664h-.728l.704-1.776-1.592-3.888h.8l1.168 2.936 1.168-2.936h.744z" fill="#000"/></svg>