<svg preserveAspectRatio="none" width="100%" height="100%" overflow="visible" style="display: block;" viewBox="0 0 102 117" fill="none" xmlns="http://www.w3.org/2000/svg">
<g id="Image" clip-path="url(#clip0_0_13)">
<g id="Vector">
</g>
<path id="Vector_2" d="M5.0938 66.7955C5.1489 54.6817 9.97091 43.0829 18.5049 34.5366C27.0389 25.9904 38.5902 21.1924 50.6316 21.1924C62.673 21.1924 74.2242 25.9904 82.7582 34.5366C91.2922 43.0829 96.1142 54.6817 96.1693 66.7955C96.1142 78.9093 91.2922 90.5081 82.7582 99.0544C74.2242 107.601 62.673 112.399 50.6316 112.399C38.5902 112.399 27.0389 107.601 18.5049 99.0544C9.97091 90.5081 5.1489 78.9093 5.0938 66.7955ZM50.4471 32.2349C49.1697 32.6617 49.1793 70.6052 50.4566 72.1396C51.0191 72.8157 51.9533 73.3672 52.5395 73.3672C53.1258 73.3672 56.7196 71.5546 60.5232 69.3345C64.3315 67.1192 69.2694 64.2565 71.4953 62.981C75.6516 60.6026 76.6478 59.3224 74.8127 58.7374C74.0263 58.4832 71.4334 59.7779 63.8167 64.2085C58.3307 67.4021 53.5262 70.0106 53.1353 70.0106C52.3489 70.0106 52.2488 67.3973 52.2107 45.2248C52.1916 33.0309 52.0105 31.7123 50.4471 32.2349Z" fill="var(--fill-0, #E5E5E2)"/>
<path id="Vector_3" d="M39.5608 112.684C31.1863 110.584 22.1731 105.899 18.646 102.974L17.6355 102.135L14.9187 99.1383C13.4268 97.4888 11.7109 95.331 10.0093 92.5451C9.35159 90.8716 8.97505 90.0325 8.75103 89.5961C8.52701 89.1646 7.43075 86.0909 6.31542 82.7631L4.28972 76.7213L3.71299 72.6599C3.34122 70.0418 3.26019 66.6468 3.81308 57.541C4.1086 55.1243 4.24206 54.3714 4.29925 54.3043C4.45178 54.1365 4.57093 53.6905 4.92365 51.9787C5.09523 51.1635 5.81019 49.2215 6.52037 47.6631C7.22579 46.1095 7.87402 44.5655 7.95505 44.2346L8.1028 43.6352L9.17523 42.3166C9.76626 41.5925 10.3001 40.6191 10.486 39.3197C21.2293 27.7539 26.2626 24.5988 33.9603 22.417L38.6075 21.0984L40.1565 20.7387C41.5865 20.4079 41.7056 20.2305 41.7056 18.4611C41.7056 16.543 41.7056 16.543 36.2243 16.3033C32.3779 16.3033 31.8583 16.0971 31.3864 15.2244C30.8002 14.1311 30.6334 7.30291 31.172 6.29594L31.4579 5.7541L32.5304 4.6752C33.6028 3.59631 33.6028 3.59631 70.5421 4.31557C71.2475 6.35828 71.3619 8.46332 71.2475 10.3094C71.1379 12.1555 71.0425 14.2366 71.033 14.9367C71.0187 16.3033 69.0216 16.8931 64.7033 16.8164L62.9159 16.7828H61.9626C61.2143 16.7828 61.0094 17.1041 61.0094 18.2836C61.0094 19.4105 61.2477 19.8325 62.9159 20.1393C81.3951 25.6585 94.5407 39.6697 97.5768 54.5441L98.1869 57.541L98.3061 64.8535C98.3728 68.8766 98.2632 73.0818 97.7103 76.2418C97.0907 82.9309 91.7809 93.1493 87.2863 97.9635C79.6315 106.173 67.4725 112.603 58.0304 113.442L55.7664 113.643L50.8332 113.763C48.1164 113.83 44.4701 113.615 39.5608 112.684ZM5.0938 66.7931C5.1489 78.9069 9.97091 90.5057 18.5049 99.052C27.0389 107.598 38.5902 112.396 50.6316 112.396C62.673 112.396 74.2242 107.598 82.7582 99.052C91.2922 90.5057 96.1142 78.9069 96.1693 66.7931C96.1142 54.6793 91.2922 43.0805 82.7582 34.5342C74.2242 25.988 62.673 21.19 50.6316 21.19C38.5902 21.19 27.0389 25.988 18.5049 34.5342C9.97091 43.0805 5.1489 54.6793 5.0938 66.7931ZM51.9533 19.4153C57.5061 19.07 58.1495 18.7104 58.1495 15.9724C58.1495 14.3852 58.1495 14.3852 62.6061 14.3852C67.8395 14.3852 68.6355 13.8866 68.6355 10.6019C68.6355 6.64598 68.9453 6.75627 57.7873 6.69393C51.4957 6.66037 47.6826 6.44939 47.2918 6.11852C46.8437 5.7493 46.5149 5.75889 46.1193 6.15689C45.7618 6.51652 43.5693 6.71311 39.9611 6.71311C33.6981 6.71311 33.3645 6.89053 33.3645 10.2039C33.3645 12.8556 34.4274 13.4262 39.3844 13.4262C44.2842 13.4262 44.8037 13.7235 44.8037 16.5239C44.8037 17.5932 44.9134 18.8447 45.0421 19.305C45.1851 19.8085 45.6093 20.0578 46.1145 19.9332C46.5721 19.8181 49.2031 19.5879 51.9533 19.4153Z" fill="var(--fill-0, #28282B)"/>
<path id="Vector_4" d="M50.4471 32.2325C52.0105 31.7099 52.1916 33.0285 52.2107 45.2224C52.2488 67.3949 52.3489 70.0082 53.1353 70.0082C53.5262 70.0082 58.3307 67.3997 63.8167 64.2061C71.4334 59.7755 74.0263 58.4808 74.8127 58.735C76.6478 59.32 75.6516 60.6002 71.4953 62.9786C69.2694 64.2541 64.3315 67.1168 60.5232 69.3321C56.7196 71.5522 53.1258 73.3648 52.5395 73.3648C51.9533 73.3648 51.0191 72.8133 50.4566 72.1372C49.1793 70.6028 49.1697 32.6593 50.4471 32.2325Z" fill="var(--fill-0, #28282B)"/>
<path id="Vector_5" d="M70.5421 4.31557C33.6028 3.59631 33.6028 3.59631 32.5304 4.6752L31.4579 5.7541C30.3236 2.49344 31.0671 2.39754 50.9142 2.37357C69.0168 2.3448 69.36 2.36398 69.9463 3.33258L70.5421 4.31557Z" fill="var(--fill-0, #E5E5E2)"/>
<path id="Vector_6" d="M97.7103 76.2418C98.2632 73.0818 98.3728 68.8766 98.3061 64.8535L98.1869 57.541C100.184 57.541 99.96 75.3979 98.6731 75.8822L97.7103 76.2418Z" fill="var(--fill-0, #E5E5E2)"/>
<path id="Vector_7" d="M3.81308 57.541C3.26019 66.6468 3.34122 70.0418 3.71299 72.6599L4.28972 76.7213C2.06383 73.3072 1.84935 57.8671 3.09336 57.6609L3.81308 57.541Z" fill="var(--fill-0, #E5E5E2)"/>
<path id="Vector_8" d="M39.5607 112.684C44.4701 113.615 48.1164 113.83 50.8332 113.763L55.7664 113.643C55.7664 115.192 40.3186 114.732 39.9182 113.653L39.5607 112.684Z" fill="var(--fill-0, #E5E5E2)"/>
<path id="Vector_9" d="M10.0093 92.5451C11.7109 95.331 13.4268 97.4888 14.9187 99.1383L17.6355 102.135C15.6575 102.457 11.7634 97.8341 10.8435 95.0625L10.0093 92.5451Z" fill="var(--fill-0, #E5E5E2)"/>
<path id="Vector_10" d="M38.6075 21.0984C38.6075 20.4414 39.1604 20.1441 39.842 20.0147C42.1632 19.5687 41.2194 17.5356 38.6075 17.3534C37.4302 17.2671 36.4102 16.9986 36.3435 16.754L36.2243 16.3033C41.7056 16.543 41.7056 16.543 41.7056 18.4611C41.7056 20.2305 41.5864 20.4079 40.1565 20.7387L38.6075 21.0984Z" fill="var(--fill-0, #E5E5E2)"/>
<path id="Vector_11" d="M8.1028 43.6352C8.28869 42.3358 8.82252 41.3624 9.41355 40.6383L10.486 39.3197C10.3001 40.6191 9.76626 41.5925 9.17523 42.3166L8.1028 43.6352Z" fill="var(--fill-0, #E5E5E2)"/>
<path id="Vector_12" d="M62.9159 16.7828C62.077 17.9672 62.077 18.485 62.4202 19.1611L62.9159 20.1393C61.2477 19.8325 61.0093 19.4105 61.0093 18.2836C61.0093 17.1041 61.2143 16.7828 61.9626 16.7828H62.9159Z" fill="var(--fill-0, #E5E5E2)"/>
</g>
<defs>
<clipPath id="clip0_0_13">
<rect width="102" height="117" fill="white"/>
</clipPath>
</defs>
</svg>
