<svg preserveAspectRatio="none" width="100%" height="100%" overflow="visible" style="display: block;" viewBox="0 0 23 23" fill="none" xmlns="http://www.w3.org/2000/svg">
<g id="Image" clip-path="url(#clip0_0_10)">
<g id="Vector">
</g>
<path id="Vector_2" d="M15.2308 16.2404C15.0916 16.2186 14.5324 16.4486 13.9888 16.7513C8.17953 19.9967 1.65358 16.8239 0.697263 10.2895C0.269947 7.37332 2.43195 3.36647 5.19558 1.94895C6.13132 1.46837 8.91311 0.605263 9.52684 0.605263C10.0123 0.605263 11.891 1.15363 12.949 1.60516C17.5224 3.55532 19.2292 9.17216 16.7053 13.9695C15.8676 15.5625 15.6739 15.2054 19.2062 18.6022C22.0352 21.3234 22.2979 21.6091 22.1405 21.8016C22.0461 21.9178 21.8464 22.0437 21.6975 22.0824C21.4687 22.1417 20.9578 21.689 18.4557 19.2171C16.8227 17.6023 15.3713 16.2634 15.2308 16.2404ZM1.55674 9.55045C1.55674 11.6145 2.37667 13.594 3.83617 15.0535C5.29567 16.513 7.27517 17.3329 9.33921 17.3329C11.4033 17.3329 13.3828 16.513 14.8423 15.0535C16.3017 13.594 17.1217 11.6145 17.1217 9.55045C17.1217 7.48641 16.3017 5.5069 14.8423 4.04741C13.3828 2.58791 11.4033 1.76797 9.33921 1.76797C7.27517 1.76797 5.29567 2.58791 3.83617 4.04741C2.37667 5.5069 1.55674 7.48641 1.55674 9.55045Z" fill="var(--fill-0, black)"/>
</g>
<defs>
<clipPath id="clip0_0_10">
<rect width="23" height="23" fill="white"/>
</clipPath>
</defs>
</svg>
