<svg preserveAspectRatio="none" width="100%" height="100%" overflow="visible" style="display: block;" viewBox="0 0 20 20" fill="none" xmlns="http://www.w3.org/2000/svg">
<g id="Icon">
<path id="Vector" d="M15.512 1.997C15.922 2.009 16.344 2.134 16.677 2.467C17.027 2.818 17.121 3.264 17.08 3.683C17.04 4.087 16.877 4.493 16.679 4.851C16.3944 5.34909 16.0432 5.80597 15.635 6.209C15.784 6.43368 15.8923 6.68281 15.955 6.945C16.08 7.498 15.971 8.134 15.405 8.701C14.857 9.249 13.974 9.548 13.195 9.717C12.763 9.81 12.33 9.867 11.947 9.902C12.06 10.256 12.09 10.705 11.877 11.202L11.822 11.32C11.54 11.885 11.028 12.203 10.479 12.396C9.935 12.587 9.29 12.679 8.653 12.75C7.996 12.823 7.343 12.874 6.701 12.977C6.144 13.067 5.631 13.19 5.187 13.382L5.006 13.466C4.536 14.225 4.137 14.966 3.81 15.646C4.439 15.277 5.194 15 6 15C6.13261 15 6.25979 15.0527 6.35355 15.1464C6.44732 15.2402 6.5 15.3674 6.5 15.5C6.5 15.6326 6.44732 15.7598 6.35355 15.8536C6.25979 15.9473 6.13261 16 6 16C5.355 16 4.711 16.248 4.15 16.61C3.589 16.974 3.15 17.427 2.916 17.777L2.901 17.794C2.86263 17.848 2.8135 17.8934 2.75671 17.9275C2.69992 17.9616 2.63669 17.9835 2.571 17.992L2.517 17.998H2.479L2.419 17.992L2.376 17.982L2.342 17.975L2.328 17.968C2.2966 17.9564 2.26645 17.9416 2.238 17.924L2.223 17.916L2.199 17.896C2.18367 17.8853 2.169 17.8733 2.155 17.86L2.127 17.83C2.11433 17.8167 2.10267 17.8023 2.092 17.787C2.084 17.7757 2.07667 17.7637 2.07 17.751L2.046 17.706L2.027 17.657L2.015 17.617C2.00697 17.5842 2.00228 17.5507 2.001 17.517L2.002 17.479C2.002 17.459 2.00367 17.439 2.007 17.419C2.009 17.4057 2.01233 17.3923 2.017 17.379L2.025 17.342C2.418 16.165 3.182 14.466 4.305 12.702C4.39537 11.8087 4.52718 10.9201 4.7 10.039C5.017 8.419 5.568 6.398 6.506 4.991L6.732 4.669C7.25137 3.96204 7.88628 3.34775 8.61 2.852C9.38 2.333 10.222 2 11.001 2C11.3172 1.99779 11.6306 2.05914 11.9227 2.18042C12.2147 2.3017 12.4794 2.48043 12.701 2.706C12.7723 2.778 12.8353 2.84867 12.89 2.918C13.283 2.668 13.792 2.395 14.317 2.212C14.695 2.081 15.109 1.985 15.512 1.997ZM17.04 15.554C17.0657 15.4936 17.1031 15.4388 17.15 15.3929C17.1969 15.3469 17.2524 15.3107 17.3133 15.2861C17.3742 15.2616 17.4394 15.2493 17.505 15.25C17.5707 15.2507 17.6356 15.2643 17.696 15.29C17.7564 15.3157 17.8112 15.3531 17.8571 15.4C17.9031 15.4469 17.9393 15.5024 17.9639 15.5633C17.9884 15.6242 18.0007 15.6894 18 15.755C17.9993 15.8207 17.9857 15.8856 17.96 15.946C17.483 17.061 16.692 18 15.5 18C14.63 18 13.976 17.5 13.5 16.798C13.024 17.5 12.37 18 11.5 18C10.63 18 9.976 17.5 9.5 16.798C9.024 17.5 8.37 18 7.5 18C7.36739 18 7.24021 17.9473 7.14645 17.8536C7.05268 17.7598 7 17.6326 7 17.5C7 17.3674 7.05268 17.2402 7.14645 17.1464C7.24021 17.0527 7.36739 17 7.5 17C8.07 17 8.61 16.56 9.04 15.554L9.074 15.487C9.12212 15.4089 9.19081 15.3455 9.27255 15.3038C9.35429 15.2621 9.44591 15.2438 9.5374 15.2507C9.62889 15.2576 9.71671 15.2896 9.79125 15.3431C9.86579 15.3966 9.92417 15.4695 9.96 15.554L10.042 15.735C10.458 16.613 10.965 17 11.5 17C12.07 17 12.61 16.56 13.04 15.554L13.074 15.487C13.1221 15.4089 13.1908 15.3455 13.2726 15.3038C13.3543 15.2621 13.4459 15.2438 13.5374 15.2507C13.6289 15.2576 13.7167 15.2896 13.7913 15.3431C13.8658 15.3966 13.9242 15.4695 13.96 15.554L14.042 15.735C14.458 16.613 14.965 17 15.5 17C16.07 17 16.61 16.56 17.04 15.554ZM15.482 2.997C15.247 2.99 14.961 3.047 14.647 3.157C14.0764 3.36733 13.5386 3.65792 13.05 4.02C12.9896 4.0654 12.9198 4.09654 12.8457 4.11108C12.7715 4.12561 12.6951 4.12316 12.622 4.10392C12.549 4.08467 12.4813 4.04913 12.4239 3.99995C12.3666 3.95078 12.3212 3.88925 12.291 3.82V3.818L12.282 3.801C12.205 3.65861 12.108 3.52796 11.994 3.413C11.8653 3.28027 11.7108 3.17519 11.5401 3.10418C11.3693 3.03316 11.1859 2.99772 11.001 3C10.491 3 9.841 3.227 9.169 3.68C8.54002 4.11234 7.98831 4.64748 7.537 5.263L7.337 5.546C6.517 6.778 5.995 8.634 5.681 10.231C5.63367 10.471 5.59133 10.702 5.554 10.924C7.03 9.018 8.942 7.19 11.28 6.05C11.3393 6.01793 11.4045 5.99819 11.4716 5.99196C11.5388 5.98573 11.6065 5.99315 11.6707 6.01376C11.7349 6.03437 11.7942 6.06775 11.8452 6.1119C11.8961 6.15604 11.9376 6.21003 11.9672 6.27063C11.9968 6.33123 12.0138 6.39718 12.0172 6.46452C12.0206 6.53186 12.0103 6.59919 11.9871 6.66246C11.9638 6.72574 11.9279 6.78365 11.8817 6.83272C11.8355 6.88179 11.7798 6.92101 11.718 6.948C9.331 8.111 7.385 10.074 5.913 12.109C6.123 12.0623 6.33267 12.0223 6.542 11.989C7.216 11.881 7.926 11.823 8.542 11.755C9.178 11.685 9.72 11.601 10.146 11.452C10.566 11.305 10.806 11.115 10.926 10.872L10.979 10.754C11.0192 10.651 11.0381 10.541 11.0347 10.4305C11.0313 10.32 11.0055 10.2113 10.959 10.111C10.913 10.0051 10.8491 9.90804 10.77 9.824L10.76 9.814L10.762 9.815L10.764 9.817C10.6893 9.74914 10.637 9.66027 10.6137 9.56209C10.5905 9.4639 10.5975 9.36098 10.6339 9.26686C10.6702 9.17274 10.7342 9.09182 10.8174 9.03473C10.9006 8.97765 10.9991 8.94706 11.1 8.947C11.527 8.947 12.259 8.895 12.982 8.738C13.729 8.577 14.364 8.325 14.696 7.993C15.008 7.682 15.032 7.401 14.979 7.166C14.9285 6.96825 14.8353 6.78395 14.706 6.626L14.595 6.501C14.5444 6.45046 14.5051 6.38963 14.48 6.32263C14.4549 6.25564 14.4445 6.18403 14.4494 6.11265C14.4543 6.04127 14.4745 5.97178 14.5086 5.90887C14.5427 5.84596 14.5899 5.7911 14.647 5.748C14.955 5.518 15.473 4.96 15.803 4.365C15.966 4.069 16.063 3.8 16.084 3.585C16.104 3.383 16.057 3.261 15.969 3.173C15.862 3.066 15.709 3.003 15.481 2.996" fill="var(--fill-0, #121212)"/>
</g>
</svg>
