<svg width="12" height="20" viewBox="0 0 12 20" fill="none" xmlns="http://www.w3.org/2000/svg">
<g clip-path="url(#clip0_2_55)">
<path d="M3.45193 0H4.28927C4.29042 0.0348671 4.28363 0.063875 4.30636 0.0831533C4.34722 0.117806 4.43941 0.120154 4.4951 0.130751C4.49957 0.212313 4.50069 0.316316 4.52271 0.392498C4.54112 1.09883 4.52437 1.86 4.52394 2.56995L4.52437 3.83507C4.52517 4.00887 4.53471 4.20142 4.53178 4.3714C4.58279 4.37148 4.74804 4.36656 4.78532 4.38241C4.78966 4.475 4.79411 4.56116 4.79209 4.65381C4.98703 4.64923 5.1858 4.66604 5.37987 4.66354C6.06053 4.65473 6.77413 4.68354 7.45185 4.65401C7.4478 4.60767 7.44405 4.41816 7.46419 4.38757L7.68791 4.36611C7.7068 4.3153 7.70613 3.93636 7.70672 3.85375L7.70483 2.47044C7.70378 2.24623 7.69424 1.95129 7.70565 1.73351C7.72206 1.64614 7.75511 1.55808 7.75123 1.47149C8.09352 1.44573 8.43023 1.45266 8.77309 1.45548C8.78438 1.47663 8.78505 1.46812 8.78251 1.48268C8.77055 1.55118 8.79053 1.64754 8.79234 1.71953C8.87811 1.72413 8.96334 1.73064 9.04908 1.72532C9.04985 1.94304 9.0318 4.02613 9.05668 4.09861L9.05801 4.37291L9.07297 4.38855C9.14898 4.38998 9.2513 4.39465 9.32454 4.38756C9.32944 4.47519 9.33687 4.56982 9.33156 4.65682C9.51793 4.65364 9.70073 4.66282 9.88635 4.66372C10.134 4.66493 10.3775 4.66233 10.6254 4.67024C10.7003 4.6894 11.1195 4.68282 11.1358 4.696C11.052 4.70648 11.0116 4.70707 10.9269 4.7052C10.8516 4.70381 10.6806 4.68932 10.6281 4.73147C10.6101 4.85838 10.8156 4.82264 10.871 4.82374C10.8876 4.85338 10.8845 4.8396 10.8777 4.87897C10.8555 4.9024 10.838 4.90083 10.8064 4.90402C10.8848 4.91298 11.0022 4.92403 11.0811 4.91978C11.15 4.92395 11.3824 4.94309 11.4337 4.9328C11.4352 5.00993 11.4407 5.12742 11.4357 5.20131C11.5794 5.20514 11.816 5.2232 11.9464 5.21355C12.0123 5.24089 11.9693 5.28926 11.9708 5.36617C11.99 6.78178 11.994 8.19756 11.9828 9.61325V16.8505L11.9838 18.6627C11.9838 18.8203 11.9604 19.1898 11.9814 19.3102C11.8918 19.3117 11.798 19.3116 11.7092 19.3198C11.616 19.3261 11.5406 19.3287 11.4469 19.323L11.4386 19.5674C11.4234 19.6596 11.4117 19.7171 11.4243 19.8117C11.3414 19.8231 11.2785 19.8267 11.1948 19.8304L11.1685 19.9688H1.31416C1.31522 19.9329 1.3193 19.9034 1.30247 19.8714C1.19277 19.8415 0.925812 19.785 0.816826 19.7868L0.804226 19.7776C0.862072 19.6921 0.82479 19.6623 0.787136 19.5667L0.546479 19.5445C0.543229 19.4723 0.541752 19.4366 0.526845 19.3648L0.5268 19.324C0.514029 19.2272 0.515716 19.1521 0.518804 19.055C0.426191 19.0413 0.353916 19.0293 0.260532 19.0284C0.219514 18.9397 0.263829 18.8682 0.194326 18.8075C0.144046 18.784 0.0549169 18.797 0 18.8051V5.70946C0.0708652 5.70613 0.141711 5.70243 0.212536 5.69832C0.26245 5.61421 0.266544 5.60808 0.29618 5.51409C0.35345 5.46203 0.449937 5.46752 0.534043 5.45984C0.614864 5.24709 0.564159 5.23318 0.799366 5.19718C0.85352 5.07813 0.831268 5.09932 0.847287 4.97503C0.874658 4.95241 1.04195 4.93419 1.09423 4.92456C1.26137 4.92809 1.40387 4.91729 1.56872 4.90275C1.6813 4.59449 1.62319 4.72583 1.91645 4.66501C2.1159 4.66233 2.72818 4.67723 2.90682 4.64213C2.92129 4.56792 2.93302 4.46769 2.92057 4.3935C3.00417 4.37804 3.08583 4.37318 3.17009 4.38497C3.16676 4.2573 3.179 4.07055 3.18186 3.93724C3.18495 3.71044 3.18593 3.4836 3.18483 3.25677L3.1868 0.393544C3.20612 0.308511 3.21608 0.250458 3.22702 0.163898C3.29154 0.146812 3.38302 0.143592 3.4279 0.111509C3.45531 0.0695884 3.44786 0.0549957 3.45193 0ZM10.6046 18.7588C10.6268 18.6722 10.6459 18.6163 10.6461 18.5262C10.7395 18.5156 10.8031 18.5074 10.8966 18.5108C10.9376 17.8678 10.9189 17.1036 10.9189 16.4501L10.9187 13.1005L10.919 8.8556C10.919 8.10746 10.9384 7.25374 10.9104 6.51138C10.9165 6.4211 10.9097 6.3338 10.901 6.2441C10.8118 6.23808 10.7373 6.23161 10.648 6.23714C10.6452 6.16016 10.6393 6.07938 10.635 6.00212C10.5421 5.99614 10.478 5.99047 10.3864 5.97541C10.3754 5.88169 10.3802 5.83983 10.3956 5.75017C10.2723 5.72498 9.98852 5.6823 9.87111 5.67832C9.86807 5.61541 9.8539 5.53837 9.8441 5.47502C9.76576 5.46492 9.65569 5.4573 9.57796 5.46364C8.86215 5.44443 8.07609 5.45996 7.35635 5.46006L2.39623 5.47697C2.40945 5.58134 2.4084 5.59191 2.38804 5.69779C2.28623 5.71447 2.21508 5.71823 2.11141 5.72311C2.10881 5.78721 2.11474 5.89515 2.07759 5.94128C2.03159 5.97084 1.96546 5.9604 1.90792 5.9591L1.88128 5.99367C1.77874 6.01155 1.70452 6.01056 1.60022 6.00736C1.5987 6.08222 1.59852 6.18016 1.59025 6.25402C1.5242 6.25998 1.41405 6.25942 1.34954 6.24856C1.33698 7.0207 1.33325 7.79297 1.33836 8.5652L1.33891 12.0049L1.33932 16.025C1.33668 16.851 1.33861 17.677 1.34514 18.503C1.37681 18.5043 1.57587 18.5063 1.59061 18.5134C1.59773 18.5977 1.60337 18.6821 1.60754 18.7666C1.72767 18.7768 1.76388 18.7753 1.87703 18.7748C1.9022 18.8197 1.88353 18.8753 1.89989 18.8992C1.93112 18.9449 2.00081 18.957 2.03696 19.0105C2.47058 19.0518 3.14827 19.032 3.59913 19.032L6.31856 19.0318L8.82916 19.0314L9.62095 19.0317C9.77568 19.0317 9.93034 19.0328 10.0849 19.0246C10.1346 19.0219 10.1834 18.987 10.2233 18.9592C10.2904 18.9125 10.3546 18.9064 10.3535 18.8093C10.3918 18.7802 10.5486 18.7661 10.6046 18.7588Z" fill="#161516"/>
<path d="M3.5334 9.45603C3.98182 9.42974 4.54256 9.44371 4.99809 9.44371L7.4298 9.44394C7.80097 9.44414 8.20407 9.4546 8.57182 9.44664L8.5833 9.44849C8.64601 9.45834 8.74961 9.45004 8.78762 9.47123C8.83025 9.55826 8.63376 9.76749 9.04299 9.71281C9.04493 9.82267 9.03985 10.1334 9.05081 10.2195L9.04729 10.2356C8.98958 10.2682 8.86874 10.2529 8.79014 10.2524C8.78962 10.3341 8.79041 10.4205 8.78591 10.5017C8.72801 10.5076 8.53544 10.5112 8.50933 10.5196C8.22402 10.5382 7.75481 10.5238 7.46292 10.5184L7.43147 10.4997C7.42516 10.4746 7.42564 10.4702 7.40926 10.4513C7.39251 10.46 7.35081 10.4854 7.33353 10.4851C7.02829 10.4705 6.73234 10.473 6.42762 10.4846C6.19487 10.4934 5.95459 10.5207 5.72457 10.5216C4.97279 10.5244 4.21882 10.5278 3.46722 10.5212C3.38277 10.5168 3.28542 10.5085 3.20267 10.5189C3.16937 10.4599 3.18979 9.85398 3.18485 9.73655C3.23342 9.7152 3.40079 9.71777 3.4635 9.71686C3.45853 9.65423 3.48471 9.53882 3.49861 9.47503L3.5334 9.45603Z" fill="#171515" fill-opacity="0.980392"/>
<path d="M3.49181 9.21448C3.48317 9.15341 3.47093 8.98543 3.50332 8.93672C3.79644 8.93846 4.08603 8.9205 4.37696 8.91948L7.15173 8.91906C7.49666 8.91919 7.83479 8.91524 8.1796 8.93157C8.36272 8.94025 8.5896 8.92077 8.77118 8.94081C8.77697 8.96458 8.76585 9.13489 8.76563 9.17579C8.68233 9.17467 8.59073 9.17133 8.5085 9.17842L8.50758 9.19629L5.29749 9.19409L4.26761 9.19416C4.01476 9.19436 3.7427 9.18985 3.49181 9.21448Z" fill="#161515" fill-opacity="0.0156863"/>
<path d="M3.49179 9.21446C3.74267 9.18983 4.01474 9.19434 4.26759 9.19414L5.29747 9.19407L8.50755 9.19628L8.5184 9.20297L8.53298 9.21379C8.51762 9.26269 8.53717 9.37157 8.53899 9.43133C8.60054 9.43379 8.72137 9.43545 8.77766 9.44366C8.70902 9.44251 8.64036 9.4435 8.57179 9.44664C8.20405 9.45459 7.80095 9.44414 7.42978 9.44394L4.99807 9.44371C4.54254 9.44371 3.98179 9.42974 3.53338 9.45602C3.50885 9.4509 3.48404 9.45479 3.45874 9.4568L3.4626 9.44339L3.47872 9.42926C3.49077 9.36321 3.49003 9.2825 3.49179 9.21446Z" fill="#171616" fill-opacity="0.737255"/>
<path d="M6.29594 10.5248C6.69775 10.5131 7.06636 10.5304 7.45514 10.5243C7.46993 10.6036 7.46676 10.6907 7.45973 10.7708C7.23051 10.7905 6.93445 10.7338 6.69252 10.7573C6.65583 10.7608 6.60135 10.751 6.5625 10.7539C6.41468 10.765 6.27849 10.7856 6.12884 10.7868C6.12884 10.8587 6.13342 10.9661 6.09711 11.0272C5.99553 11.0858 5.67074 11.0295 5.54527 11.0329C5.44677 11.0356 5.33411 11.0543 5.23848 11.055C4.71507 11.0586 4.19126 11.0677 3.66801 11.0504C3.55656 11.0468 3.44546 11.0439 3.33402 11.0479L3.3333 11.0394L3.42253 11.0173C3.36447 10.9981 3.25238 11.0274 3.21075 11.0095C3.19613 10.9593 3.19834 10.8292 3.21399 10.7794C3.33174 10.758 3.67698 10.7847 3.82925 10.7817C4.4272 10.7698 5.05658 10.7969 5.65224 10.778L5.66252 10.7793C5.74068 10.786 6.05656 10.7771 6.11857 10.7525C6.11549 10.6809 6.11831 10.6026 6.11284 10.5348C6.17893 10.5338 6.23027 10.5305 6.29594 10.5248Z" fill="#161515" fill-opacity="0.0196078"/>
<path d="M3.46728 10.5212C4.21887 10.5278 4.97285 10.5244 5.72463 10.5216C5.95464 10.5207 6.19492 10.4934 6.42767 10.4846C6.73239 10.473 7.02835 10.4705 7.33359 10.4851C7.35086 10.4854 7.39257 10.46 7.40931 10.4513C7.4257 10.4702 7.42522 10.4746 7.43152 10.4997L7.46297 10.5184L7.45526 10.5243C7.06648 10.5304 6.69788 10.5131 6.29607 10.5248C6.21206 10.5206 6.1614 10.5193 6.0777 10.5251L5.88049 10.5322C5.84586 10.6015 5.88858 10.7558 5.82699 10.7657C5.79807 10.7703 5.70892 10.766 5.66265 10.7793L5.65237 10.778C5.59174 10.7595 5.32649 10.7656 5.25028 10.7657L4.10937 10.7664C3.98674 10.7664 3.56694 10.7751 3.48288 10.7504C3.46202 10.7184 3.45874 10.5651 3.46728 10.5212Z" fill="#161515" fill-opacity="0.729412"/>
<path d="M9.32779 9.43823C9.33887 9.46412 9.3419 9.47322 9.3481 9.50068C9.35566 9.48038 9.3579 9.47492 9.36123 9.45365C9.42034 9.44065 9.55182 9.46429 9.58708 9.45773C9.58972 9.59018 9.61468 10.4469 9.5708 10.5157C9.49236 10.5218 9.1205 10.5382 9.06348 10.5157C9.12451 10.5089 9.25839 10.51 9.32306 10.5086C9.30221 10.2987 9.32847 10.0113 9.31825 9.78055C9.32158 9.68149 9.30157 9.53181 9.32779 9.43823Z" fill="#161515" fill-opacity="0.0705882"/>
<path d="M2.68954 9.45104C2.80342 9.45341 2.93033 9.43229 3.04089 9.44602C2.99937 9.45198 2.98074 9.44709 2.95369 9.47092C2.94614 9.59319 2.90751 10.4513 2.9354 10.523L2.92469 10.5246C2.84595 10.512 2.75365 10.5494 2.7069 10.5148C2.6443 10.3833 2.6874 9.63727 2.68954 9.45104Z" fill="#161516" fill-opacity="0.0470588"/>
<path d="M7.46279 10.5184C7.75468 10.5238 8.22389 10.5382 8.5092 10.5196L8.54362 10.525C8.55754 10.57 8.54841 10.7029 8.52336 10.7454C8.50851 10.7706 8.47208 10.7727 8.44183 10.7802C8.1162 10.7884 7.77056 10.7625 7.45967 10.7708C7.4667 10.6907 7.46987 10.6037 7.45508 10.5243L7.46279 10.5184Z" fill="#161516" fill-opacity="0.709804"/>
<path d="M9.05678 9.75C9.11002 9.70304 9.23179 9.67204 9.29689 9.71046C9.30539 9.73518 9.31153 9.7553 9.31825 9.78055C9.32847 10.0113 9.30221 10.2987 9.32305 10.5086C9.25839 10.51 9.1245 10.5089 9.06347 10.5157L9.02759 10.5207C9.03626 10.4874 9.04471 10.2825 9.04718 10.2356L9.0507 10.2195C9.06662 10.1607 9.0579 9.82595 9.05678 9.75Z" fill="#161516" fill-opacity="0.627451"/>
<path d="M3.12606 9.70559C3.16919 9.62912 3.17133 9.55354 3.19499 9.46323C3.22344 9.55382 3.18971 9.64743 3.18476 9.73657C3.18971 9.854 3.16928 10.4599 3.20259 10.5189L3.19307 10.5224L3.1745 10.5107C3.13939 10.484 3.00842 10.4937 2.95879 10.4942C2.96356 10.2903 2.91551 9.92069 2.97035 9.72813C2.98542 9.72821 2.98554 9.73385 3.00045 9.74787C3.04644 9.72885 3.07806 9.71933 3.12606 9.70559Z" fill="#161516" fill-opacity="0.666667"/>
<path d="M8.79201 9.20533C8.96846 9.17503 9.11532 9.21732 9.30458 9.21094V9.42188C9.25026 9.42077 9.12448 9.41387 9.07899 9.42811L9.09516 9.45134C9.06768 9.45409 9.06185 9.45232 9.03423 9.44785L8.80167 9.44354L8.76758 9.4282C8.78035 9.37188 8.78694 9.26537 8.79201 9.20533Z" fill="#161515" fill-opacity="0.0117647"/>
<path d="M3.20259 10.5189C3.28534 10.5085 3.38268 10.5168 3.46714 10.5212C3.4586 10.5651 3.46188 10.7184 3.48274 10.7504C3.5668 10.7751 3.9866 10.7664 4.10923 10.7664L5.25014 10.7657C5.32636 10.7656 5.5916 10.7595 5.65223 10.778C5.05657 10.7969 4.42719 10.7698 3.82924 10.7817C3.67696 10.7847 3.33173 10.758 3.21398 10.7794L3.20243 10.7731C3.188 10.7275 3.19291 10.5783 3.19307 10.5223L3.20259 10.5189Z" fill="#161516" fill-opacity="0.607843"/>
<path d="M3.39793 9.4426L3.46265 9.44342L3.45879 9.45682C3.39604 9.45937 3.25141 9.46868 3.19511 9.46323C3.17145 9.55355 3.16931 9.62912 3.12618 9.7056C3.07818 9.71933 3.04655 9.72886 3.00057 9.74788C2.98566 9.73385 2.98553 9.72822 2.97046 9.72814C2.91563 9.9207 2.96368 10.2903 2.95891 10.4942C3.00854 10.4937 3.1395 10.484 3.17461 10.5107C3.09708 10.5308 3.01635 10.5119 2.93552 10.523C2.90763 10.4513 2.94626 9.59322 2.95381 9.47094C2.98086 9.44712 2.99949 9.45201 3.04101 9.44604C3.1592 9.45156 3.27989 9.45344 3.39793 9.4426Z" fill="#161516" fill-opacity="0.52549"/>
<path d="M8.57178 9.44665C8.64034 9.44351 8.709 9.44252 8.77764 9.44367L8.80175 9.44353L9.0343 9.44784C9.05034 9.49015 9.04441 9.6753 9.05685 9.75C9.05798 9.82595 9.0667 10.1607 9.05077 10.2195C9.03981 10.1334 9.04489 9.82268 9.04295 9.71282C8.63372 9.76749 8.83021 9.55827 8.78758 9.47123C8.74957 9.45004 8.64597 9.45834 8.58326 9.4485L8.57178 9.44665Z" fill="#161515" fill-opacity="0.815686"/>
<path d="M3.45873 9.4568C3.48403 9.4548 3.50884 9.45091 3.53337 9.45603L3.49857 9.47503C3.48467 9.53882 3.45849 9.65423 3.46346 9.71686C3.40076 9.71777 3.23339 9.7152 3.18481 9.73655C3.18976 9.64742 3.22349 9.55381 3.19504 9.46321C3.25134 9.46866 3.39597 9.45934 3.45873 9.4568Z" fill="#161516" fill-opacity="0.772549"/>
<path d="M9.09536 9.45133C9.15913 9.44978 9.26941 9.44997 9.32798 9.43823C9.30175 9.53181 9.32177 9.68149 9.31844 9.78055C9.31172 9.75529 9.30558 9.73517 9.29708 9.71046C9.23198 9.67203 9.11021 9.70304 9.05697 9.75C9.04453 9.6753 9.05046 9.49015 9.03442 9.44784C9.06204 9.45231 9.06788 9.45408 9.09536 9.45133Z" fill="#161515" fill-opacity="0.537255"/>
<path d="M9.04724 10.2356C9.04476 10.2825 9.03632 10.4874 9.02764 10.5207C8.95527 10.5243 8.88023 10.5235 8.8076 10.5238C8.71964 10.5251 8.63167 10.5255 8.54369 10.525L8.50928 10.5196C8.53539 10.5113 8.72795 10.5076 8.78585 10.5017C8.79035 10.4205 8.78957 10.3341 8.79008 10.2524C8.86868 10.2529 8.98952 10.2682 9.04724 10.2356Z" fill="#161516" fill-opacity="0.815686"/>
<path d="M3.17453 10.5107L3.1931 10.5224C3.19294 10.5783 3.18803 10.7276 3.20245 10.7732C3.11218 10.7686 3.00603 10.8053 2.93839 10.7558C2.89771 10.6958 2.91835 10.6005 2.92472 10.5247L2.93543 10.523C3.01626 10.5119 3.097 10.5308 3.17453 10.5107Z" fill="#161515" fill-opacity="0.0196078"/>
<path d="M3.39784 9.44258C3.33137 9.38553 3.22895 9.44572 3.18872 9.40873C3.23017 9.32916 3.17902 9.25333 3.21961 9.19759C3.24489 9.19466 3.46869 9.20676 3.49176 9.21448C3.49 9.28252 3.49074 9.36322 3.47869 9.42927L3.46256 9.4434L3.39784 9.44258Z" fill="#161515" fill-opacity="0.0117647"/>
<path d="M5.6626 10.7793C5.70888 10.766 5.79802 10.7703 5.82694 10.7657C5.88854 10.7558 5.84581 10.6016 5.88044 10.5322L6.07765 10.5251C6.02015 10.5424 6.00617 10.5373 5.9782 10.5991C5.95967 10.64 5.92717 10.664 5.9248 10.7132L5.93891 10.7228C6.11577 10.684 6.07182 10.5478 6.11291 10.5348C6.11839 10.6026 6.11556 10.6809 6.11864 10.7525C6.05664 10.7771 5.74076 10.786 5.6626 10.7793Z" fill="#161516" fill-opacity="0.52549"/>
<path d="M8.54368 10.5249C8.63166 10.5255 8.71963 10.5251 8.80759 10.5238L8.78945 10.5348C8.7405 10.5741 8.76104 10.6709 8.73472 10.6695C8.63988 10.6644 8.59273 10.7275 8.51487 10.7791L8.44189 10.7802C8.47214 10.7727 8.50857 10.7706 8.52342 10.7454C8.54848 10.7029 8.55761 10.57 8.54368 10.5249Z" fill="#161516" fill-opacity="0.603922"/>
<path d="M8.51831 9.20299C8.57311 9.20156 8.75002 9.19391 8.79201 9.20533C8.78694 9.26537 8.78035 9.37188 8.76758 9.4282C8.76272 9.39062 8.75981 9.36028 8.75758 9.32245C8.43447 9.34805 8.62882 9.29046 8.53289 9.21381L8.51831 9.20299Z" fill="#161516" fill-opacity="0.560784"/>
<path d="M8.53295 9.21381C8.62888 9.29046 8.43454 9.34804 8.75764 9.32245C8.75987 9.36028 8.76278 9.39062 8.76764 9.4282L8.80173 9.44354L8.77763 9.44368C8.72134 9.43547 8.60051 9.43381 8.53896 9.43135C8.53713 9.37159 8.51759 9.26271 8.53295 9.21381Z" fill="#161516" fill-opacity="0.615686"/>
<path d="M8.51489 10.7791C8.59275 10.7275 8.63991 10.6644 8.73475 10.6695C8.76107 10.6709 8.74053 10.5741 8.78947 10.5348C8.78336 10.6336 8.78035 10.6814 8.79219 10.7813C8.688 10.7703 8.61993 10.7715 8.51489 10.7791Z" fill="#161516" fill-opacity="0.541176"/>
<path d="M6.07765 10.5251C6.16135 10.5193 6.21201 10.5206 6.29602 10.5248C6.23035 10.5305 6.17901 10.5338 6.11291 10.5349C6.07182 10.5478 6.11577 10.684 5.93891 10.7228L5.9248 10.7132C5.92717 10.664 5.95967 10.64 5.9782 10.5991C6.00617 10.5373 6.02015 10.5424 6.07765 10.5251Z" fill="#161516" fill-opacity="0.513725"/>
<path d="M1.86622 6.17938C1.88531 6.2065 1.88081 6.19344 1.87652 6.23489C1.85608 6.3563 1.86119 6.61811 1.86234 6.7497C1.86472 6.97581 1.86581 7.20194 1.86562 7.42806L1.86577 10.128L1.86564 16.4476L1.8655 17.807C1.86452 17.935 1.85138 18.4386 1.87101 18.521C1.79393 18.5156 1.66923 18.5328 1.59561 18.5059C1.6003 18.4083 1.59015 18.2717 1.58789 18.1703C1.58524 18.001 1.58438 17.8317 1.5853 17.6624L1.58529 15.4975L1.58574 9.57235C1.58581 8.49476 1.56499 7.3351 1.59543 6.26343C1.64762 6.21586 1.77427 6.27873 1.84936 6.25412C1.87244 6.21905 1.86542 6.22704 1.86622 6.17938Z" fill="#161615" fill-opacity="0.184314"/>
<path d="M10.6438 6.25995L10.6621 6.28745C10.7409 6.30224 10.8292 6.27052 10.8784 6.29383C10.8912 6.35788 10.8922 6.46854 10.9104 6.51137C10.9385 7.25373 10.9191 8.10746 10.9191 8.85559L10.9188 13.1005L10.919 16.4501C10.919 17.1036 10.9377 17.8678 10.8966 18.5108C10.8032 18.5074 10.7396 18.5156 10.6462 18.5262C10.646 18.6163 10.6269 18.6722 10.6046 18.7588C10.5487 18.766 10.3919 18.7802 10.3536 18.8093C10.3116 18.8025 10.2773 18.8006 10.2429 18.776L10.3919 18.7658C10.4048 18.6812 10.4117 18.6197 10.393 18.536C10.4938 18.5364 10.5343 18.532 10.6325 18.5153C10.6442 18.395 10.6489 18.2115 10.6494 18.0915L10.6394 6.26616L10.6438 6.25995Z" fill="#161516" fill-opacity="0.705882"/>
<path d="M1.34958 6.24857C1.41409 6.25943 1.52423 6.25999 1.59028 6.25403L1.5955 6.26343C1.56505 7.33509 1.58587 8.49476 1.5858 9.57234L1.58535 15.4975L1.58536 17.6624C1.58444 17.8317 1.5853 18.0009 1.58795 18.1703C1.59021 18.2717 1.60036 18.4083 1.59567 18.5059L1.59064 18.5134C1.5759 18.5063 1.37685 18.5043 1.34517 18.503C1.33864 17.677 1.33671 16.851 1.33936 16.025L1.33895 12.0049L1.3384 8.56521C1.33329 7.79298 1.33701 7.02071 1.34958 6.24857Z" fill="#161515" fill-opacity="0.690196"/>
<path d="M10.3839 6.26423L10.3983 6.26099C10.4039 6.31749 10.4127 6.36249 10.4165 6.42046C10.4251 6.38546 10.4298 6.34677 10.4531 6.32184C10.4913 6.32231 10.5074 6.31986 10.5409 6.34002C10.5719 6.39916 10.5446 6.43263 10.5546 6.4919C10.5615 6.533 10.6062 6.54508 10.601 6.60136C10.5846 6.77965 10.5713 6.94121 10.5712 7.12087L10.5716 9.18177L10.5718 16.1119C10.5718 16.6493 10.5713 17.1873 10.5719 17.7248C10.572 17.8218 10.6061 18.1732 10.5941 18.2352L10.5862 18.2388C10.5053 18.2753 10.4676 18.2312 10.4132 18.2605C10.3986 18.3135 10.4209 18.4356 10.4226 18.4951C10.4102 18.5077 10.3996 18.5183 10.3909 18.5271L10.3633 18.5237C10.3984 18.5004 10.3877 18.4971 10.389 18.4641C10.3988 18.2137 10.3972 17.9659 10.3953 17.7157L10.3937 15.1518L10.3937 8.13737C10.39 7.6346 10.3933 7.13181 10.4038 6.62913C10.4052 6.50949 10.3743 6.35612 10.3839 6.26423Z" fill="#161515" fill-opacity="0.133333"/>
<path d="M1.87695 18.7748L1.89893 18.7701C2.48342 18.7896 3.08407 18.781 3.67074 18.7805L6.26347 18.7803L8.80467 18.78C9.27253 18.7801 9.77946 18.7918 10.2428 18.776C10.2772 18.8006 10.3115 18.8025 10.3534 18.8093C10.3545 18.9064 10.2904 18.9125 10.2232 18.9592C10.1833 18.9869 10.1345 19.0219 10.0848 19.0246C9.93027 19.0328 9.7756 19.0317 9.62088 19.0317L8.82909 19.0314L6.31849 19.0318L3.59906 19.0319C3.14819 19.0319 2.47051 19.0517 2.03689 19.0105C2.00074 18.9569 1.93105 18.9449 1.89982 18.8992C1.88346 18.8753 1.90213 18.8197 1.87695 18.7748Z" fill="#151415" fill-opacity="0.721569"/>
<path d="M1.87093 18.521L7.71894 18.525L9.4306 18.5234C9.64034 18.5228 9.85059 18.5243 10.0602 18.5319C10.1377 18.5349 10.2757 18.5224 10.344 18.5288C10.3026 18.5376 10.2111 18.539 10.2005 18.5513C10.2608 18.5818 10.3466 18.6108 10.3235 18.6919C10.2958 18.7255 10.2831 18.7389 10.2411 18.7426C9.93336 18.7696 9.61955 18.7576 9.31031 18.7562L8.04183 18.7565L3.76714 18.7562L2.46094 18.7573C2.35375 18.7575 1.98282 18.7495 1.89651 18.7624L1.8776 18.746C1.86004 18.6857 1.86973 18.5879 1.87093 18.521Z" fill="#161515" fill-opacity="0.0980392"/>
<path d="M2.39629 5.47697L7.35642 5.46006C8.07616 5.45997 8.86222 5.44443 9.57802 5.46365C9.65436 5.53701 9.89899 5.40428 9.80076 5.67394C9.78736 5.68538 9.78837 5.68507 9.77176 5.69072C9.80322 5.71568 9.81927 5.70142 9.84614 5.71757L9.8367 5.72032L2.40507 5.71953C2.33254 5.73855 2.21625 5.73366 2.13751 5.73358C2.13304 5.81994 2.13066 5.90641 2.13037 5.99289C2.07959 6.00668 1.94696 6.00603 1.89234 6.00148L1.88135 5.99368L1.90798 5.95911C1.96552 5.96041 2.03165 5.97085 2.07766 5.94128C2.11481 5.89516 2.10888 5.78721 2.11148 5.72311C2.21514 5.71824 2.2863 5.71448 2.3881 5.69779C2.40847 5.59191 2.40951 5.58134 2.39629 5.47697Z" fill="#161515" fill-opacity="0.737255"/>
<path d="M2.44947 5.73484C3.861 5.70927 5.33251 5.72928 6.74752 5.7293L8.52581 5.7289C8.70611 5.72866 9.68473 5.70232 9.79968 5.78292C9.81888 5.82291 9.81463 5.80526 9.81203 5.8529L9.78613 5.85321L9.7812 5.80021L9.76534 5.79339L9.77167 5.7935C9.72794 5.8587 9.80657 5.93487 9.65133 5.92487L9.63497 5.90924C9.64287 5.89144 9.64846 5.88754 9.6619 5.87409L9.64445 5.87167C9.61628 5.91028 9.62364 5.92772 9.6014 5.9627C9.64882 6.00442 9.78197 5.98023 9.85071 5.99192L9.8574 5.99786C9.71401 6.0263 9.57576 5.98302 9.44473 5.98508L7.56488 6.00198L4.09871 6.0019C3.68943 6.00433 3.28014 6.0017 2.87092 5.99403C2.69652 5.99219 2.55966 6.00935 2.38013 5.99533L2.38624 5.98805C2.47307 5.98061 2.57619 6.00989 2.62948 5.97916C2.65897 5.94642 2.65612 5.81957 2.65565 5.77374C2.63557 5.76326 2.50109 5.76456 2.45744 5.76005L2.44947 5.73484Z" fill="#161515" fill-opacity="0.0313725"/>
<path d="M10.4023 6.2501C10.4558 6.24857 10.6025 6.23716 10.6394 6.26616L10.6494 18.0915C10.6297 18.1382 10.6136 18.1934 10.5943 18.2352C10.6062 18.1732 10.5721 17.8218 10.572 17.7248C10.5715 17.1873 10.572 16.6493 10.572 16.1119L10.5718 9.18176L10.5714 7.12087C10.5715 6.94121 10.5848 6.77964 10.6012 6.60135C10.6064 6.54508 10.5617 6.533 10.5548 6.4919C10.5448 6.43263 10.5721 6.39916 10.5411 6.34001C10.5076 6.31986 10.4914 6.32231 10.4533 6.32184C10.4299 6.34676 10.4252 6.38546 10.4167 6.42045C10.4129 6.36249 10.404 6.31749 10.3984 6.26098L10.4023 6.2501Z" fill="#161516" fill-opacity="0.180392"/>
<path d="M10.3635 18.5237L10.3911 18.5271L10.393 18.536C10.4118 18.6197 10.4049 18.6812 10.3919 18.7658L10.243 18.776C9.77964 18.7918 9.27271 18.7801 8.80485 18.78L6.26365 18.7804L3.67092 18.7805C3.08425 18.7811 2.4836 18.7896 1.89911 18.7702L1.89673 18.7624C1.98304 18.7495 2.35397 18.7575 2.46116 18.7573L3.76736 18.7562L8.04205 18.7564L9.31053 18.7562C9.61977 18.7576 9.93358 18.7696 10.2413 18.7426C10.2834 18.7389 10.296 18.7255 10.3237 18.6919C10.3468 18.6108 10.2611 18.5818 10.2007 18.5513C10.2113 18.5389 10.3028 18.5375 10.3442 18.5288L10.3635 18.5237Z" fill="#161516" fill-opacity="0.156863"/>
<path d="M9.57788 5.46365C9.65561 5.45731 9.76569 5.46493 9.84403 5.47503C9.85382 5.53838 9.86799 5.61542 9.87104 5.67833C9.98845 5.68231 10.2722 5.72499 10.3956 5.75018C10.3801 5.83984 10.3753 5.8817 10.3863 5.97542C10.4779 5.99048 10.542 5.99615 10.6349 6.00213C10.6392 6.07939 10.6451 6.16017 10.648 6.23715C10.7372 6.23162 10.8118 6.23809 10.9009 6.24411C10.9096 6.3338 10.9165 6.42111 10.9103 6.51139C10.8921 6.46856 10.8911 6.3579 10.8783 6.29384C10.8291 6.27053 10.7408 6.30226 10.6619 6.28747L10.6436 6.25996C10.6315 6.22448 10.6169 6.07442 10.6116 6.02825C10.5396 6.01476 10.4622 6.01333 10.3888 6.00975C10.3068 5.994 10.2169 6.01002 10.1337 5.99055C10.1356 5.929 10.1224 5.79911 10.1175 5.73294C10.0448 5.72535 9.89222 5.73274 9.84599 5.71757C9.81912 5.70143 9.80308 5.71569 9.77162 5.69073C9.78823 5.68508 9.78721 5.68538 9.80062 5.67394C9.89885 5.40428 9.65422 5.53701 9.57788 5.46365Z" fill="#161516" fill-opacity="0.835294"/>
<path d="M2.40496 5.71951L9.83659 5.72031C9.87739 5.77415 9.83755 5.93782 9.85073 5.9919C9.78199 5.98022 9.64884 6.00441 9.60142 5.96269C9.62366 5.92771 9.6163 5.91027 9.64447 5.87166L9.66192 5.87407C9.64848 5.88752 9.64289 5.89143 9.63499 5.90923L9.65135 5.92486C9.80659 5.93486 9.72795 5.85868 9.77169 5.79348L9.76536 5.79338L9.78122 5.8002L9.78615 5.8532L9.81205 5.85288C9.81465 5.80525 9.8189 5.8229 9.7997 5.78291C9.68475 5.70231 8.70613 5.72864 8.52583 5.72889L6.74754 5.72929C5.33253 5.72926 3.86102 5.70926 2.44949 5.73483L2.40112 5.73312L2.40496 5.71951Z" fill="#161515" fill-opacity="0.14902"/>
<path d="M9.83667 5.72031L9.8461 5.71756C9.89233 5.73272 10.0449 5.72534 10.1176 5.73292C10.1225 5.7991 10.1357 5.92899 10.1338 5.99054C10.0749 5.98174 9.92628 5.98053 9.87165 5.99949L9.85751 5.99785L9.85081 5.99191C9.83763 5.93783 9.87747 5.77415 9.83667 5.72031Z" fill="#161516" fill-opacity="0.568627"/>
<path d="M1.5956 18.5059C1.66922 18.5327 1.79392 18.5156 1.87101 18.521C1.86981 18.5879 1.86012 18.6857 1.87767 18.746L1.89659 18.7624L1.89897 18.7701L1.87699 18.7748C1.76385 18.7753 1.72764 18.7768 1.60751 18.7666C1.60334 18.6821 1.5977 18.5976 1.59058 18.5134L1.5956 18.5059Z" fill="#161515" fill-opacity="0.654902"/>
<path d="M10.5943 18.2352C10.6136 18.1934 10.6298 18.1382 10.6494 18.0915C10.6489 18.2115 10.6442 18.395 10.6325 18.5153C10.5343 18.532 10.4938 18.5364 10.393 18.536L10.3911 18.5271C10.3998 18.5183 10.4104 18.5077 10.4228 18.4951C10.4211 18.4356 10.3988 18.3135 10.4134 18.2605C10.4678 18.2312 10.5055 18.2753 10.5864 18.2388L10.5943 18.2352Z" fill="#161516" fill-opacity="0.188235"/>
<path d="M1.88137 5.99368L1.89236 6.00149C1.85986 6.03983 1.8649 6.13055 1.86633 6.17938C1.86554 6.22704 1.87255 6.21905 1.84947 6.25412C1.77439 6.27873 1.64773 6.21586 1.59555 6.26343L1.59033 6.25403C1.59861 6.18018 1.59878 6.08223 1.6003 6.00737C1.7046 6.01057 1.77883 6.01157 1.88137 5.99368Z" fill="#161516" fill-opacity="0.658824"/>
<path d="M2.13751 5.73356C2.21625 5.73365 2.33254 5.73853 2.40507 5.71951L2.40124 5.73312C2.36744 5.82224 2.39301 5.90503 2.38638 5.98804L2.38026 5.99531C2.30271 5.9924 2.22513 5.98989 2.14754 5.98781L2.13037 5.99288C2.13066 5.90639 2.13304 5.81993 2.13751 5.73356Z" fill="#161516" fill-opacity="0.52549"/>
<path d="M9.87158 5.9995C9.92621 5.98054 10.0749 5.98175 10.1337 5.99055C10.2169 6.01001 10.3068 5.99399 10.3888 6.00974C10.3888 6.05903 10.3808 6.21603 10.4022 6.25011L10.3983 6.26099L10.3839 6.26424C10.3031 6.24657 10.2108 6.26025 10.1614 6.22209C10.1324 6.18132 10.143 6.06072 10.1434 6.0038C10.0568 6.00539 9.95633 6.00988 9.87158 5.9995Z" fill="#161515" fill-opacity="0.145098"/>
<path d="M2.40125 5.73312L2.44962 5.73483L2.45758 5.76004C2.50124 5.76455 2.63572 5.76325 2.6558 5.77373C2.65626 5.81956 2.65912 5.94642 2.62963 5.97915C2.57634 6.00989 2.47322 5.9806 2.38639 5.98804C2.39303 5.90504 2.36746 5.82224 2.40125 5.73312Z" fill="#161516" fill-opacity="0.0705882"/>
<path d="M2.1302 5.99289L2.14737 5.98782C2.07973 6.05722 2.15075 6.18886 2.06995 6.24057C2.04468 6.24143 1.88 6.23327 1.87644 6.23488C1.88073 6.19343 1.88523 6.20648 1.86614 6.17937C1.86471 6.13053 1.85967 6.03982 1.89217 6.00148C1.94679 6.00602 2.07942 6.00668 2.1302 5.99289Z" fill="#161516" fill-opacity="0.121569"/>
<path d="M10.3889 6.00974C10.4624 6.01332 10.5397 6.01475 10.6117 6.02824C10.617 6.07441 10.6316 6.22447 10.6438 6.25995L10.6393 6.26617C10.6025 6.23716 10.4558 6.24857 10.4023 6.2501C10.3809 6.21602 10.3889 6.05902 10.3889 6.00974Z" fill="#161516" fill-opacity="0.658824"/>
<path d="M4.81035 0.168945L5.03324 0.169815C5.03062 0.387212 5.05612 0.625815 5.05784 0.858621L5.05611 2.96763C5.05582 3.23574 5.07145 3.87985 5.01578 4.11067L4.96482 4.11535L4.96286 4.11899C5.02036 4.13498 5.02 4.11356 5.04557 4.14783C5.03966 4.22259 5.01949 4.29041 5.0076 4.36397C5.17789 4.38538 5.44283 4.37797 5.62148 4.37877L6.74975 4.38342C6.89611 4.38394 7.13563 4.37592 7.27246 4.38412C7.17541 4.40884 6.75448 4.39964 6.63154 4.39922L5.32963 4.39321C5.15543 4.39161 4.96418 4.37798 4.79518 4.38181C4.75328 4.28047 4.77383 1.58907 4.77389 1.23227L4.77244 0.569238C4.77192 0.487215 4.76529 0.249813 4.77955 0.17876C4.78997 0.255271 4.78827 0.360246 4.80409 0.42624C4.81229 0.338155 4.81079 0.257307 4.81035 0.168945Z" fill="#161515" fill-opacity="0.0862745"/>
<path d="M3.18715 0.129059C3.18586 0.194234 3.17968 0.334637 3.18668 0.393531L3.18471 3.25676C3.18581 3.48359 3.18483 3.71042 3.18175 3.93723C3.17889 4.07054 3.16664 4.25729 3.16997 4.38496C3.08571 4.37317 3.00405 4.37803 2.92045 4.39349C2.85185 4.3953 2.66213 4.40501 2.60449 4.39297C2.63524 4.38201 2.87584 4.37736 2.92219 4.37624C2.9316 4.28972 2.9291 4.19702 2.92861 4.10955C2.93582 3.79619 2.92969 3.46181 2.92963 3.14586L2.92941 1.32616C2.92938 1.01737 2.9263 0.708065 2.93564 0.399344C2.93794 0.323357 2.93725 0.246415 2.95098 0.171414C2.9807 0.150606 3.03383 0.152648 3.07249 0.150431C3.12615 0.150033 3.1391 0.15119 3.18715 0.129059Z" fill="#161515" fill-opacity="0.713725"/>
<path d="M4.52197 0.143008C4.61187 0.146481 4.67872 0.15286 4.76756 0.137634L4.77967 0.178753C4.76541 0.249806 4.77204 0.487208 4.77255 0.569231L4.77401 1.23227C4.77395 1.58907 4.75339 4.28046 4.7953 4.38181L4.78535 4.38242C4.74807 4.36656 4.58283 4.37148 4.53182 4.3714C4.53475 4.20142 4.52521 4.00887 4.52441 3.83507L4.52398 2.56995C4.52441 1.86 4.54116 1.09884 4.52275 0.392502C4.52993 0.310307 4.52487 0.225595 4.52197 0.143008Z" fill="#161516" fill-opacity="0.717647"/>
<path d="M2.93637 0.130951C2.97628 0.133541 3.03921 0.133702 3.07272 0.15043C3.03406 0.152646 2.98093 0.150604 2.95121 0.171412C2.93747 0.246413 2.93817 0.323355 2.93587 0.399342C2.92653 0.708063 2.92961 1.01737 2.92963 1.32616L2.92986 3.14586C2.92992 3.46181 2.93604 3.79619 2.92884 4.10955C2.80558 4.15843 2.82371 4.12669 2.7052 4.10777C2.65665 3.85974 2.67431 3.25274 2.67414 2.9671L2.67452 0.777689C2.67654 0.571283 2.70168 0.377962 2.70142 0.181353C2.76986 0.175306 2.83106 0.173622 2.89989 0.171875L2.93637 0.130951Z" fill="#191919" fill-opacity="0.105882"/>
<path d="M9.32416 1.46722L9.34299 1.56481L9.3498 1.56682C9.34528 1.53279 9.33938 1.51193 9.34959 1.47922C9.37311 1.47553 9.55565 1.47622 9.57727 1.48626C9.5917 1.51676 9.57184 1.71524 9.57256 1.77154C9.58709 2.47848 9.58425 3.18569 9.56402 3.89249C9.55896 4.04772 9.58068 4.22583 9.54932 4.36902C9.84451 4.39026 10.1786 4.37211 10.4787 4.38171C10.5281 4.38329 10.5868 4.37305 10.6284 4.37391C10.555 4.41014 10.4672 4.40095 10.3859 4.39647C10.2231 4.38952 9.41872 4.40629 9.33224 4.36903L9.32724 4.17845C9.33874 3.93805 9.33 3.61917 9.3302 3.37358L9.33172 2.04342C9.33089 1.9148 9.29552 1.56667 9.32416 1.46722Z" fill="#171716" fill-opacity="0.133333"/>
<path d="M7.44062 4.38251L7.46427 4.38758C7.44414 4.41816 7.44789 4.60768 7.45193 4.65401C6.77421 4.68354 6.06061 4.65474 5.37995 4.66354C5.18589 4.66605 4.98712 4.64923 4.79217 4.65381C4.79419 4.56117 4.78975 4.47501 4.7854 4.38242L4.79535 4.38181C4.96435 4.37798 5.1556 4.39161 5.3298 4.3932L6.6317 4.39921C6.75464 4.39963 7.17558 4.40883 7.27262 4.38412C7.32038 4.38316 7.39505 4.37934 7.44062 4.38251Z" fill="#161515" fill-opacity="0.756863"/>
<path d="M9.05591 1.74044C9.13971 1.73294 9.22298 1.73542 9.30709 1.73632C9.32388 2.3033 9.30791 2.88136 9.3147 3.44876C9.31609 3.56436 9.30348 4.09596 9.32729 4.17845L9.33228 4.36903L9.30913 4.34623C9.2602 4.35022 9.10031 4.36542 9.05805 4.37291L9.05673 4.09861C9.06985 4.04514 9.06268 3.8131 9.06124 3.74462C9.04728 3.08121 9.08021 2.4026 9.05591 1.74044Z" fill="#161515" fill-opacity="0.694118"/>
<path d="M7.70022 1.73225L7.70554 1.73351C7.69413 1.95129 7.70367 2.24623 7.70472 2.47045L7.70661 3.85375C7.70602 3.93637 7.70669 4.31531 7.6878 4.36612L7.46408 4.38757L7.44043 4.38251C7.4577 4.34407 7.4592 4.16843 7.46048 4.12039C7.47294 3.35862 7.4536 2.5876 7.46602 1.82313C7.4724 1.79948 7.47871 1.75164 7.48289 1.7254C7.56245 1.7622 7.60178 1.72372 7.70022 1.73225Z" fill="#161516" fill-opacity="0.745098"/>
<path d="M7.1837 1.47665C7.2585 1.47941 7.39908 1.46032 7.44849 1.46863C7.45073 1.48738 7.45316 1.50611 7.45579 1.52481C7.46723 1.50303 7.46738 1.49518 7.47195 1.47064C7.47091 1.55856 7.46138 1.74699 7.46617 1.82311C7.45375 2.58759 7.47309 3.35861 7.46063 4.12038C7.43582 4.0512 7.45926 3.91511 7.43949 3.84835C7.36626 3.84827 7.30019 3.86806 7.2333 3.85C7.22805 3.84525 7.22161 3.83943 7.21398 3.83254C7.18684 3.26395 7.20593 2.66859 7.20337 2.09982C7.20272 1.95972 7.24431 1.81589 7.21778 1.74135C7.21303 1.76873 7.20211 1.85794 7.18664 1.87299C7.17937 1.8274 7.18356 1.53893 7.1837 1.47665Z" fill="#161515" fill-opacity="0.0313725"/>
<path d="M9.05811 4.37291C9.10036 4.36542 9.26025 4.35022 9.30918 4.34622L9.33234 4.36903C9.41882 4.40628 10.2232 4.38951 10.386 4.39646L10.3966 4.41342C10.3894 4.43709 10.3915 4.60808 10.3979 4.6398C10.4251 4.65573 10.4305 4.65062 10.4647 4.65132C10.5045 4.65229 10.6001 4.65216 10.6352 4.658L10.643 4.6602L10.6255 4.67023C10.3776 4.66232 10.1341 4.66493 9.88645 4.66372C9.70083 4.66282 9.51803 4.65364 9.33166 4.65682C9.33697 4.56982 9.32953 4.47519 9.32464 4.38755C9.25139 4.39464 9.14908 4.38998 9.07307 4.38855L9.05811 4.37291Z" fill="#161516" fill-opacity="0.764706"/>
<path d="M2.40786 4.39389C2.47204 4.39353 2.54081 4.39188 2.60456 4.39299C2.66219 4.40502 2.85192 4.39532 2.92052 4.3935C2.93296 4.4677 2.92123 4.56793 2.90677 4.64213C2.72813 4.67724 2.11585 4.66233 1.9164 4.66502L1.76709 4.66229C1.80089 4.65841 1.82226 4.65937 1.85011 4.64025C1.88086 4.57498 1.87788 4.48612 1.88758 4.40576C1.99419 4.40482 2.31493 4.41141 2.40786 4.39389Z" fill="#161515" fill-opacity="0.768627"/>
<path d="M7.74737 1.20185C7.80911 1.22634 8.32245 1.1823 8.4654 1.20572L8.5284 1.22113C8.52875 1.2218 8.54609 1.38238 8.55581 1.41928L8.5432 1.43464C8.59834 1.4445 8.66796 1.44153 8.725 1.44124L8.75933 1.44075L8.78049 1.4458L8.78753 1.4508L8.77303 1.45549C8.43017 1.45267 8.09346 1.44574 7.75116 1.4715C7.75504 1.55809 7.722 1.64615 7.70559 1.73352L7.70027 1.73225C7.68991 1.65787 7.6914 1.51114 7.71386 1.44116C7.7411 1.35969 7.70397 1.25307 7.74737 1.20185Z" fill="#161515" fill-opacity="0.694118"/>
<path d="M4.51953 0H11.9786C11.8672 0.0242456 11.5733 0.0168802 11.4442 0.0167861L10.529 0.0157618L6.66321 0.0156987L5.40209 0.0156716C5.21532 0.015596 5.02486 0.0157678 4.83768 0.0133093C4.80084 0.0128255 4.79155 0.0226375 4.7741 0.0452763L4.76746 0.137631C4.67863 0.152857 4.61177 0.146477 4.52188 0.143005L4.51953 0Z" fill="#161515" fill-opacity="0.0196078"/>
<path d="M8.78918 1.19516C8.88708 1.19106 9.22591 1.17531 9.3056 1.20001C9.3211 1.24226 9.3168 1.38937 9.31637 1.44142C9.264 1.44098 9.07737 1.43023 9.04807 1.45691L9.03958 1.46337C8.95535 1.45517 8.87211 1.45346 8.78756 1.4508L8.78052 1.4458C8.78937 1.35695 8.78919 1.28468 8.78918 1.19516Z" fill="#161515" fill-opacity="0.0196078"/>
<path d="M1.59869 4.66962C1.66771 4.66208 1.6981 4.66094 1.76712 4.66229L1.91643 4.66502C1.62317 4.72584 1.68128 4.5945 1.5687 4.90276C1.40385 4.9173 1.26135 4.9281 1.09421 4.92457L1.04297 4.91688L1.06889 4.90542C1.06741 4.84576 1.08259 4.74223 1.08995 4.67957C1.24702 4.66747 1.44312 4.68957 1.59869 4.66962Z" fill="#161516" fill-opacity="0.792157"/>
<path d="M0.801922 4.9262C0.880907 4.92308 0.964399 4.91829 1.04299 4.91687L1.09423 4.92456C1.04195 4.93419 0.874658 4.95241 0.847287 4.97503C0.831268 5.09932 0.85352 5.07813 0.799366 5.19718C0.564159 5.23318 0.614864 5.24709 0.534043 5.45984C0.449937 5.46752 0.35345 5.46203 0.29618 5.51409C0.266544 5.60808 0.26245 5.61421 0.212536 5.69832C0.141711 5.70242 0.0708652 5.70613 0 5.70946V5.46946C0.0892463 5.46874 0.179137 5.46639 0.268425 5.4646L0.462831 5.44117C0.477729 5.39603 0.524503 5.22589 0.544267 5.20595L0.553615 5.20239C0.615503 5.19828 0.677302 5.19292 0.73897 5.18628C0.783144 5.08679 0.78763 4.94668 0.801922 4.9262Z" fill="#161515" fill-opacity="0.831373"/>
<path d="M9.03955 1.46337L9.04804 1.45691C9.10739 1.47305 9.2527 1.46639 9.32409 1.46723C9.29545 1.56668 9.33082 1.91481 9.33165 2.04343L9.33013 3.37359C9.32993 3.61918 9.33867 3.93806 9.32718 4.17846C9.30336 4.09597 9.31597 3.56437 9.31459 3.44877C9.30779 2.88137 9.32377 2.30331 9.30697 1.73633C9.22287 1.73543 9.13959 1.73296 9.05579 1.74046C9.04323 1.66029 9.05749 1.53489 9.03955 1.46337Z" fill="#161516" fill-opacity="0.466667"/>
<path d="M8.7877 1.45081C8.87225 1.45347 8.95549 1.45518 9.03972 1.46337C9.05767 1.53489 9.0434 1.66029 9.05597 1.74046C9.08027 2.40261 9.04734 3.08122 9.0613 3.74463C9.06274 3.81312 9.06991 4.04515 9.05679 4.09862C9.03191 4.02614 9.04995 1.94305 9.04918 1.72533C8.96345 1.73065 8.87822 1.72415 8.79245 1.71954C8.79063 1.64755 8.77065 1.55119 8.78261 1.48269C8.78516 1.46814 8.78448 1.47665 8.77319 1.45549L8.7877 1.45081Z" fill="#161515" fill-opacity="0.760784"/>
<path d="M11.4363 4.92546C11.5245 4.92532 11.6191 4.92724 11.7061 4.91721C11.7074 5.00688 11.7116 5.11522 11.7062 5.20317C11.7623 5.20432 11.8978 5.2042 11.9466 5.21355C11.8161 5.22319 11.5795 5.20514 11.4358 5.2013C11.4408 5.12742 11.4353 5.00992 11.4338 4.93279L11.4363 4.92546Z" fill="#161516" fill-opacity="0.698039"/>
<path d="M1.35842 4.66414L1.37789 4.64707C1.36144 4.6423 1.34493 4.63768 1.32837 4.63323C1.33653 4.54846 1.34213 4.47758 1.34441 4.39254C1.39133 4.36226 1.53876 4.39052 1.60762 4.38027C1.60674 4.4654 1.60892 4.56963 1.59303 4.65145L1.52959 4.66311C1.49253 4.65996 1.39967 4.66371 1.35842 4.66414Z" fill="#161515" fill-opacity="0.027451"/>
<path d="M1.35852 4.66415C1.39977 4.66371 1.49263 4.65996 1.52969 4.66312L1.59879 4.66961C1.44322 4.68956 1.24712 4.66746 1.09005 4.67956C1.08268 4.74222 1.06751 4.84575 1.06898 4.90541L1.04307 4.91687C0.964479 4.91829 0.880986 4.92308 0.802002 4.9262C0.823502 4.87053 0.81651 4.7316 0.81522 4.6692C0.907908 4.67812 1.23371 4.6632 1.35852 4.66415Z" fill="#161516" fill-opacity="0.654902"/>
<path d="M2.70507 4.10779C2.82358 4.1267 2.80545 4.15845 2.92871 4.10957C2.9292 4.19704 2.9317 4.28973 2.92229 4.37625C2.87594 4.37738 2.63534 4.38203 2.60459 4.39299C2.54084 4.39187 2.47208 4.39353 2.40789 4.39389C2.23428 4.37978 2.0328 4.39855 1.85059 4.3871C1.93175 4.36598 2.5168 4.3853 2.67093 4.36573C2.73262 4.28996 2.66259 4.18578 2.70507 4.10779Z" fill="#161515" fill-opacity="0.121569"/>
<path d="M0.260542 19.0284C0.353925 19.0293 0.426201 19.0413 0.518814 19.055C0.515726 19.1521 0.514039 19.2272 0.52681 19.324C0.475159 19.313 0.35286 19.3153 0.294337 19.3143C0.210912 19.2662 0.292095 19.1562 0.251773 19.0602L0.243408 19.033L0.260542 19.0284Z" fill="#161515" fill-opacity="0.819608"/>
<path d="M7.47506 1.45897C7.46853 1.38694 7.43881 1.29631 7.46157 1.23889C7.50556 1.18328 7.69767 1.17478 7.74744 1.20185C7.70404 1.25307 7.74117 1.35969 7.71394 1.44116L7.70717 1.45073C7.62698 1.45882 7.55501 1.46981 7.47506 1.45897Z" fill="#161515" fill-opacity="0.0156863"/>
<path d="M10.8918 4.66601C11.0717 4.66382 11.2516 4.66351 11.4314 4.66506C11.429 4.75143 11.429 4.82092 11.4329 4.90716L11.4086 4.88225C11.35 4.90617 11.222 4.92922 11.1618 4.90345C11.1986 4.84598 11.1676 4.76056 11.1535 4.68257C11.1257 4.65613 11.1074 4.67641 11.0655 4.67799C11.006 4.68024 10.9507 4.67605 10.8918 4.66601Z" fill="#161515" fill-opacity="0.639216"/>
<path d="M10.6428 4.66022C10.7081 4.66167 10.8316 4.6603 10.8918 4.66603C10.9506 4.67606 11.006 4.68026 11.0655 4.67801C11.1074 4.67642 11.1257 4.65615 11.1535 4.68259C11.1675 4.76058 11.1986 4.84599 11.1618 4.90346C11.222 4.92923 11.35 4.90618 11.4086 4.88226L11.4329 4.90718L11.4361 4.92547L11.4336 4.93281C11.3823 4.9431 11.1499 4.92396 11.081 4.91979C11.0381 4.90724 10.9792 4.90447 10.9348 4.90213C10.9888 4.77136 10.8591 4.81425 10.9268 4.70521C11.0115 4.70708 11.0519 4.70649 11.1357 4.69601C11.1194 4.68283 10.7001 4.68941 10.6252 4.67025L10.6428 4.66022Z" fill="#161516" fill-opacity="0.74902"/>
<path d="M11.4468 19.323C11.5405 19.3287 11.6159 19.3261 11.709 19.3198C11.7096 19.401 11.7125 19.4986 11.7079 19.5783C11.6486 19.568 11.4888 19.5491 11.4385 19.5674L11.4468 19.323Z" fill="#161516" fill-opacity="0.698039"/>
<path d="M0.555839 4.94185C0.632029 4.94689 0.724438 4.93426 0.802018 4.92621C0.787726 4.94669 0.78324 5.0868 0.739066 5.18629C0.677398 5.19293 0.615599 5.19829 0.553711 5.2024C0.565 5.16115 0.557122 4.99323 0.555839 4.94185Z" fill="#161516" fill-opacity="0.729412"/>
<path d="M0 18.8051C0.0549169 18.797 0.144046 18.784 0.194326 18.8075C0.263829 18.8682 0.219514 18.9397 0.260532 19.0284L0.243398 19.033L0 19.0266V18.8051Z" fill="#161516" fill-opacity="0.854902"/>
<path d="M1.85053 4.38712C2.03274 4.39856 2.23422 4.37979 2.40784 4.3939C2.31491 4.41142 1.99417 4.40483 1.88756 4.40577C1.87786 4.48613 1.88083 4.57499 1.85008 4.64026C1.82224 4.65938 1.80087 4.65842 1.76707 4.6623C1.69805 4.66095 1.66766 4.66208 1.59863 4.66962L1.52954 4.66313L1.59297 4.65147L1.62689 4.64464C1.67733 4.55647 1.53372 4.50114 1.80091 4.45755C1.83807 4.45147 1.84447 4.42135 1.85053 4.38712Z" fill="#161516" fill-opacity="0.580392"/>
<path d="M10.6286 4.3739C10.6293 4.45871 10.6301 4.52677 10.6227 4.61114C10.5575 4.63614 10.5109 4.58885 10.4492 4.62629C10.4563 4.64397 10.4518 4.63962 10.4647 4.65132C10.4306 4.65062 10.4252 4.65573 10.3979 4.6398C10.3915 4.60808 10.3894 4.43709 10.3966 4.41342L10.386 4.39646C10.4673 4.40095 10.5552 4.41014 10.6286 4.3739Z" fill="#161516" fill-opacity="0.576471"/>
<path d="M0.544167 5.20596C0.524404 5.22591 0.477629 5.39604 0.462731 5.44118L0.268325 5.46462C0.27401 5.37518 0.281183 5.30952 0.265137 5.22097C0.358375 5.22206 0.451584 5.21706 0.544167 5.20596Z" fill="#161516" fill-opacity="0.733333"/>
<path d="M8.78933 1.19516C8.78934 1.28468 8.78952 1.35695 8.78067 1.4458L8.75951 1.44075C8.76308 1.39434 8.77595 1.3357 8.74015 1.30199C8.72073 1.33274 8.72816 1.36719 8.73133 1.40377C8.65635 1.40244 8.6303 1.40079 8.55599 1.41928C8.54627 1.38238 8.52893 1.2218 8.52858 1.22113L8.46558 1.20572C8.56721 1.20574 8.69053 1.20933 8.78933 1.19516Z" fill="#171516" fill-opacity="0.596078"/>
<path d="M0.251726 19.0602C0.292048 19.1562 0.210865 19.2662 0.29429 19.3142C0.352813 19.3153 0.475112 19.313 0.526763 19.324L0.526807 19.3648C0.521707 19.4416 0.519984 19.4811 0.52527 19.5583L0.519605 19.5552C0.503479 19.4448 0.379562 19.4552 0.306751 19.469C0.294774 19.4713 0.266917 19.4142 0.2583 19.4001C0.244686 19.2967 0.245847 19.1646 0.251726 19.0602Z" fill="#161516" fill-opacity="0.647059"/>
<path d="M3.19402 0H3.45201C3.44793 0.0549957 3.45539 0.0695884 3.42797 0.111509C3.38309 0.143592 3.29162 0.146812 3.22709 0.163898C3.21616 0.250458 3.2062 0.308511 3.18687 0.393544C3.17988 0.33465 3.18605 0.194246 3.18734 0.129071C3.18541 0.0903389 3.19089 0.039697 3.19402 0Z" fill="#161516" fill-opacity="0.85098"/>
<path d="M11.081 4.91979C11.0022 4.92404 10.8848 4.91299 10.8063 4.90402C10.838 4.90084 10.8555 4.90241 10.8777 4.87898C10.8845 4.83961 10.8876 4.85339 10.871 4.82375C10.8156 4.82265 10.6101 4.85839 10.6281 4.73148C10.6805 4.68933 10.8516 4.70382 10.9269 4.7052C10.8592 4.81425 10.9889 4.77136 10.9349 4.90213C10.9793 4.90447 11.0382 4.90724 11.081 4.91979Z" fill="#161515" fill-opacity="0.811765"/>
<path d="M7.4751 1.45895C7.55505 1.46979 7.62702 1.4588 7.70721 1.45071C7.55378 1.56297 7.64918 1.6636 7.58818 1.71301C7.54695 1.72075 7.52951 1.72676 7.4896 1.71367L7.48305 1.72539C7.47888 1.75163 7.47256 1.79946 7.46618 1.82311C7.46139 1.74699 7.47092 1.55856 7.47196 1.47064L7.4751 1.45895Z" fill="#161516" fill-opacity="0.556863"/>
<path d="M0.816865 19.7868C0.92585 19.785 1.19281 19.8415 1.30251 19.8714C1.31934 19.9034 1.31526 19.9329 1.3142 19.9687H1.05798C1.05744 19.9254 1.0594 19.9041 1.04379 19.8634C0.982634 19.7934 0.894733 19.8312 0.791454 19.8155L0.782077 19.8139L0.771973 19.8027L0.778832 19.7897L0.816865 19.7868Z" fill="#161515" fill-opacity="0.843137"/>
<path d="M2.8647 0H3.19396C3.19083 0.039697 3.18535 0.0903389 3.18728 0.129071C3.13923 0.151202 3.12629 0.150046 3.07263 0.150444C3.03911 0.133717 2.97618 0.133555 2.93628 0.130965C2.95081 0.0934832 2.94081 0.0588945 2.91441 0.0321182C2.88715 0.0283579 2.88025 0.0292471 2.85742 0.0152886L2.8647 0Z" fill="#10100F" fill-opacity="0.0470588"/>
<path d="M0.54245 19.571L0.549982 19.5734C0.60926 19.5908 0.794613 19.6103 0.767293 19.7084C0.725146 19.7474 0.640397 19.7699 0.583946 19.7884C0.602728 19.8046 0.696389 19.7978 0.745115 19.8127L0.531494 19.8176C0.551702 19.7211 0.560798 19.6691 0.54245 19.571Z" fill="#161516" fill-opacity="0.662745"/>
<path d="M0.52673 19.3648C0.541638 19.4366 0.543114 19.4724 0.546365 19.5445L0.787021 19.5667C0.824676 19.6623 0.861958 19.6921 0.804112 19.7776L0.816712 19.7868L0.778679 19.7897L0.77182 19.8027L0.781923 19.814L0.74494 19.8127C0.696214 19.7978 0.602553 19.8046 0.583771 19.7884C0.640222 19.7699 0.724971 19.7474 0.767118 19.7084C0.794438 19.6103 0.609085 19.5908 0.549807 19.5734L0.542275 19.571L0.525193 19.5584C0.519907 19.4811 0.52163 19.4417 0.52673 19.3648Z" fill="#161515" fill-opacity="0.784314"/>
<path d="M4.28917 0H4.51949L4.52184 0.143005C4.52473 0.225592 4.5298 0.310303 4.52261 0.392498C4.50059 0.316316 4.49947 0.212313 4.495 0.130751C4.43932 0.120154 4.34712 0.117806 4.30626 0.0831533C4.28353 0.063875 4.29032 0.0348671 4.28917 0Z" fill="#161516" fill-opacity="0.866667"/>
<path d="M1.60761 4.38028C1.66545 4.38719 1.79187 4.39117 1.85057 4.38711C1.84451 4.42134 1.83812 4.45147 1.80096 4.45754C1.53377 4.50114 1.67737 4.55647 1.62693 4.64463L1.59302 4.65146C1.60891 4.56964 1.60673 4.46542 1.60761 4.38028Z" fill="#161515" fill-opacity="0.54902"/>
<path d="M7.71384 1.44116C7.69137 1.51115 7.68989 1.65788 7.70025 1.73226C7.60181 1.72372 7.56247 1.76221 7.48291 1.72541L7.48946 1.71369C7.52937 1.72678 7.54681 1.72077 7.58804 1.71304C7.64905 1.66362 7.55364 1.56299 7.70708 1.45074L7.71384 1.44116Z" fill="#161516" fill-opacity="0.619608"/>
<path d="M0.258301 19.4001C0.266918 19.4142 0.294774 19.4713 0.306752 19.4691C0.379563 19.4552 0.503479 19.4448 0.519605 19.5552C0.430149 19.547 0.353854 19.5498 0.264789 19.5566C0.259985 19.5144 0.25981 19.4446 0.258301 19.4001Z" fill="#161516" fill-opacity="0.607843"/>
<path d="M10.4645 4.65133C10.4516 4.63963 10.4561 4.64398 10.449 4.6263C10.5107 4.58886 10.5573 4.63615 10.6225 4.61115L10.635 4.65801C10.5999 4.65217 10.5043 4.6523 10.4645 4.65133Z" fill="#161515" fill-opacity="0.529412"/>
<path d="M8.55582 1.41927C8.63013 1.40078 8.65618 1.40243 8.73117 1.40376L8.72502 1.44123C8.66797 1.44153 8.59835 1.44449 8.54321 1.43464L8.55582 1.41927Z" fill="#161515" fill-opacity="0.588235"/>
<path d="M8.73125 1.40375C8.72807 1.36717 8.72064 1.33272 8.74006 1.30197C8.77586 1.33569 8.763 1.39433 8.75942 1.44073L8.7251 1.44123L8.73125 1.40375Z" fill="#161516" fill-opacity="0.623529"/>
</g>
<defs>
<clipPath id="clip0_2_55">
<rect width="12" height="19.9688" fill="white"/>
</clipPath>
</defs>
</svg>
