<svg preserveAspectRatio="none" width="100%" height="100%" overflow="visible" style="display: block;" viewBox="0 0 20 20" fill="none" xmlns="http://www.w3.org/2000/svg">
<g id="Icon">
<path id="Vector" d="M15.188 5.11C15.278 5.03891 15.3897 5.00091 15.5044 5.00237C15.619 5.00384 15.7297 5.04468 15.8179 5.11805C15.906 5.19143 15.9662 5.29287 15.9885 5.40537C16.0107 5.51788 15.9936 5.63461 15.94 5.736L15.884 5.82L8.384 14.82C8.33949 14.8734 8.28433 14.9169 8.22205 14.9478C8.15977 14.9787 8.09173 14.9962 8.02228 14.9993C7.95283 15.0024 7.8835 14.991 7.81871 14.9658C7.75392 14.9406 7.6951 14.9022 7.646 14.853L4.146 11.353L4.082 11.275C4.01952 11.1787 3.99199 11.0639 4.004 10.9498C4.01601 10.8357 4.06684 10.7291 4.14798 10.648C4.22913 10.5668 4.33568 10.516 4.44981 10.504C4.56394 10.492 4.67874 10.5195 4.775 10.582L4.853 10.646L7.966 13.759L15.116 5.179L15.188 5.11Z" fill="var(--fill-0, #2977D6)"/>
</g>
</svg>
