<svg preserveAspectRatio="none" width="100%" height="100%" overflow="visible" style="display: block;" viewBox="0 0 20 20" fill="none" xmlns="http://www.w3.org/2000/svg">
<g id="Icon">
<path id="Vector" d="M10 3C10.1326 3 10.2598 3.05268 10.3536 3.14645C10.4473 3.24021 10.5 3.36739 10.5 3.5V9.5H16.5L16.6 9.51C16.713 9.53295 16.8146 9.59427 16.8876 9.68357C16.9606 9.77287 17.0005 9.88466 17.0005 10C17.0005 10.1153 16.9606 10.2271 16.8876 10.3164C16.8146 10.4057 16.713 10.467 16.6 10.49L16.5 10.5H10.5V16.5C10.5 16.6326 10.4473 16.7598 10.3536 16.8536C10.2598 16.9473 10.1326 17 10 17C9.86739 17 9.74021 16.9473 9.64645 16.8536C9.55268 16.7598 9.5 16.6326 9.5 16.5V10.5H3.5C3.36739 10.5 3.24021 10.4473 3.14645 10.3536C3.05268 10.2598 3 10.1326 3 10C3 9.86739 3.05268 9.74021 3.14645 9.64645C3.24021 9.55268 3.36739 9.5 3.5 9.5H9.5V3.5C9.5 3.36739 9.55268 3.24021 9.64645 3.14645C9.74021 3.05268 9.86739 3 10 3Z" fill="var(--fill-0, #373734)"/>
</g>
</svg>
