<svg width="24" height="24" viewBox="0 0 24 24" fill="none" xmlns="http://www.w3.org/2000/svg">
  <path d="M12 2C17.5228 2 22 6.47715 22 12C22 17.5228 17.5228 22 12 22C6.47715 22 2 17.5228 2 12C2 6.47715 6.47715 2 12 2ZM12 3.5C7.30558 3.5 3.5 7.30558 3.5 12C3.5 16.6944 7.30558 20.5 12 20.5C16.6944 20.5 20.5 16.6944 20.5 12C20.5 7.30558 16.6944 3.5 12 3.5ZM12 6.5C12.4142 6.5 12.75 6.83579 12.75 7.25V11.7734L16.5693 13.5713C16.9441 13.7477 17.105 14.1946 16.9287 14.5693C16.7523 14.9441 16.3054 15.105 15.9307 14.9287L11.6807 12.9287C11.4178 12.805 11.25 12.5405 11.25 12.25V7.25C11.25 6.83579 11.5858 6.5 12 6.5Z" fill="#131313"/>
</svg>
