<svg width="24" height="24" viewBox="0 0 24 24" fill="none" xmlns="http://www.w3.org/2000/svg">
  <path d="M12 2.9502C12.4142 2.9502 12.75 3.28598 12.75 3.7002V11.25H20.25C20.6642 11.25 21 11.5858 21 12C21 12.4142 20.6642 12.75 20.25 12.75H12.75V20.2998C12.7499 20.7139 12.4141 21.0498 12 21.0498C11.5859 21.0498 11.2501 20.7139 11.25 20.2998V12.75H3.7002C3.28598 12.75 2.9502 12.4142 2.9502 12C2.9502 11.5858 3.28598 11.25 3.7002 11.25H11.25V3.7002C11.25 3.28598 11.5858 2.9502 12 2.9502Z" fill="#131313"/>
</svg>
