<svg preserveAspectRatio="none" width="100%" height="100%" overflow="visible" style="display: block;" viewBox="0 0 20 20" fill="none" xmlns="http://www.w3.org/2000/svg">
<g id="Icon">
<path id="Vector" d="M10.549 2C11.35 2 12 2.65 12 3.451C12 3.646 12.138 3.854 12.385 3.952C12.453 3.97933 12.521 4.00767 12.589 4.037L12.679 4.069C12.891 4.129 13.094 4.076 13.215 3.955C13.35 3.82012 13.5102 3.71315 13.6866 3.6402C13.8629 3.56726 14.0519 3.52976 14.2427 3.52985C14.4335 3.52995 14.6225 3.56763 14.7987 3.64075C14.975 3.71386 15.1351 3.82099 15.27 3.956L16.044 4.73L16.144 4.84C16.3709 5.11914 16.4862 5.47248 16.4678 5.83172C16.4493 6.19096 16.2983 6.5306 16.044 6.785C15.906 6.923 15.857 7.167 15.963 7.41L16.048 7.615L16.09 7.702C16.198 7.894 16.379 8 16.549 8C17.35 8 18 8.65 18 9.451V10.549C18 11.35 17.35 12 16.549 12C16.379 12 16.199 12.106 16.089 12.298L16.048 12.385L15.963 12.589C15.857 12.832 15.906 13.077 16.043 13.215C16.1779 13.3499 16.285 13.5101 16.358 13.6864C16.4311 13.8627 16.4686 14.0517 16.4686 14.2425C16.4686 14.4333 16.4311 14.6223 16.358 14.7986C16.285 14.9749 16.1779 15.1351 16.043 15.27L15.27 16.044C15.1351 16.1789 14.9749 16.286 14.7986 16.359C14.6223 16.4321 14.4333 16.4696 14.2425 16.4696C14.0517 16.4696 13.8627 16.4321 13.6864 16.359C13.5101 16.286 13.3499 16.1789 13.215 16.044C13.1435 15.98 13.0565 15.9358 12.9627 15.9158C12.8688 15.8958 12.7714 15.9007 12.68 15.93L12.589 15.963C12.5223 15.9923 12.4547 16.0203 12.386 16.047C12.139 16.145 12 16.353 12 16.547C12 17.35 11.35 18 10.548 18H9.452C8.65 18 8 17.35 8 16.548C7.99488 16.452 7.96467 16.3589 7.91238 16.2782C7.86009 16.1975 7.78755 16.1319 7.702 16.088L7.615 16.047L7.41 15.962C7.167 15.856 6.923 15.906 6.785 16.044C6.53076 16.2982 6.19129 16.4492 5.83222 16.4677C5.47315 16.4861 5.11998 16.3708 4.841 16.144L4.731 16.044L3.956 15.27C3.82105 15.1351 3.71401 14.9749 3.64098 14.7986C3.56794 14.6223 3.53035 14.4333 3.53035 14.2425C3.53035 14.0517 3.56794 13.8627 3.64098 13.6864C3.71401 13.5101 3.82105 13.3499 3.956 13.215L4.003 13.158C4.04894 13.0883 4.07871 13.0092 4.09013 12.9265C4.10154 12.8438 4.09433 12.7596 4.069 12.68L4.037 12.589L3.952 12.385C3.854 12.138 3.646 12 3.452 12C2.65 12 2 11.35 2 10.549V9.45C2 8.65 2.65 8 3.451 8C3.646 8 3.853 7.862 3.951 7.615L4.037 7.41L4.069 7.32C4.09464 7.24016 4.10202 7.15557 4.0906 7.07249C4.07918 6.98941 4.04924 6.90996 4.003 6.84L3.955 6.785C3.82005 6.65007 3.71301 6.48989 3.63998 6.31359C3.56694 6.13729 3.52935 5.94833 3.52935 5.7575C3.52935 5.56667 3.56694 5.37771 3.63998 5.20141C3.71301 5.02511 3.82005 4.86493 3.955 4.73L4.73 3.955L4.84 3.855C5.11905 3.62791 5.47243 3.51242 5.83173 3.5309C6.19104 3.54937 6.53071 3.70049 6.785 3.955C6.923 4.093 7.167 4.143 7.41 4.037C7.478 4.007 7.54633 3.97833 7.615 3.951C7.862 3.853 8 3.646 8 3.451C8 2.65 8.65 2 9.451 2H10.549ZM9.45 3C9.39082 3 9.33222 3.01167 9.27756 3.03435C9.2229 3.05703 9.17325 3.09026 9.13145 3.13216C9.08965 3.17405 9.05652 3.22377 9.03397 3.27849C9.01141 3.3332 8.99987 3.39182 9 3.451C9 4.125 8.543 4.661 7.983 4.881L7.81 4.953C7.256 5.194 6.554 5.14 6.077 4.663C6.00377 4.58897 5.90713 4.54262 5.80356 4.53186C5.69998 4.5211 5.59588 4.5466 5.509 4.604L5.439 4.664L4.663 5.438C4.62067 5.47985 4.58707 5.52968 4.56413 5.58461C4.5412 5.63954 4.52939 5.69847 4.52939 5.758C4.52939 5.81752 4.5412 5.87646 4.56413 5.93139C4.58707 5.98632 4.62067 6.03615 4.663 6.078C5.11 6.524 5.186 7.169 4.995 7.704L4.953 7.81L4.882 7.983C4.66 8.543 4.125 9 3.452 9C3.39265 8.99974 3.33384 9.01121 3.27895 9.03377C3.22405 9.05633 3.17417 9.08953 3.13215 9.13144C3.09014 9.17336 3.05684 9.22318 3.03416 9.27802C3.01148 9.33286 2.99987 9.39165 3 9.451V10.549C3 10.798 3.202 11 3.451 11C4.125 11 4.66 11.457 4.881 12.017L4.953 12.189C5.195 12.742 5.14 13.445 4.663 13.922C4.57824 14.0069 4.53064 14.122 4.53064 14.242C4.53064 14.362 4.57824 14.4771 4.663 14.562L5.437 15.337L5.509 15.396C5.59599 15.4533 5.70016 15.4786 5.80374 15.4677C5.90732 15.4567 6.0039 15.4102 6.077 15.336C6.554 14.86 7.257 14.804 7.811 15.046C7.86767 15.0707 7.925 15.0943 7.983 15.117L8.087 15.163C8.598 15.407 9 15.916 9 16.548C9 16.798 9.203 17 9.452 17H10.548C10.798 17 11 16.797 11 16.548C11 15.874 11.457 15.339 12.017 15.118L12.189 15.046L12.294 15.004C12.829 14.813 13.474 14.89 13.922 15.337C14.0069 15.4218 14.122 15.4694 14.242 15.4694C14.362 15.4694 14.4771 15.4218 14.562 15.337L15.337 14.563C15.3791 14.5209 15.4125 14.471 15.4353 14.416C15.4581 14.361 15.4699 14.302 15.4699 14.2425C15.4699 14.183 15.4581 14.124 15.4353 14.069C15.4125 14.014 15.3791 13.9641 15.337 13.922C14.86 13.445 14.805 12.742 15.047 12.188C15.0717 12.1313 15.0953 12.074 15.118 12.016L15.164 11.912C15.408 11.402 15.918 11 16.549 11C16.6083 11.0001 16.667 10.9886 16.7217 10.9659C16.7765 10.9433 16.8263 10.9101 16.8682 10.8682C16.9101 10.8263 16.9433 10.7765 16.9659 10.7217C16.9886 10.667 17.0001 10.6083 17 10.549V9.45C17 9.39082 16.9883 9.33222 16.9657 9.27756C16.943 9.2229 16.9097 9.17325 16.8678 9.13145C16.826 9.08965 16.7762 9.05652 16.7215 9.03397C16.6668 9.01141 16.6082 8.99987 16.549 9C15.917 9 15.409 8.598 15.164 8.087L15.118 7.983L15.046 7.811C14.804 7.257 14.86 6.554 15.336 6.077C15.4102 6.0039 15.4567 5.90732 15.4677 5.80374C15.4786 5.70016 15.4533 5.59599 15.396 5.509L15.336 5.437L14.562 4.663C14.4883 4.58939 14.3916 4.54335 14.288 4.53261C14.1844 4.52187 14.0802 4.54707 13.993 4.604L13.922 4.664C13.445 5.14 12.742 5.194 12.188 4.954L12.017 4.882C11.457 4.66 11 4.125 11 3.452C11.0003 3.39265 10.9888 3.33384 10.9662 3.27895C10.9437 3.22405 10.9105 3.17417 10.8686 3.13215C10.8266 3.09014 10.7768 3.05684 10.722 3.03416C10.6671 3.01148 10.6083 2.99987 10.549 3H9.45ZM10 7C10.7956 7 11.5587 7.31607 12.1213 7.87868C12.6839 8.44129 13 9.20435 13 10C13 10.7956 12.6839 11.5587 12.1213 12.1213C11.5587 12.6839 10.7956 13 10 13C9.20435 13 8.44129 12.6839 7.87868 12.1213C7.31607 11.5587 7 10.7956 7 10C7 9.20435 7.31607 8.44129 7.87868 7.87868C8.44129 7.31607 9.20435 7 10 7ZM10 8C9.46957 8 8.96086 8.21071 8.58579 8.58579C8.21071 8.96086 8 9.46957 8 10C8 10.5304 8.21071 11.0391 8.58579 11.4142C8.96086 11.7893 9.46957 12 10 12C10.5304 12 11.0391 11.7893 11.4142 11.4142C11.7893 11.0391 12 10.5304 12 10C12 9.46957 11.7893 8.96086 11.4142 8.58579C11.0391 8.21071 10.5304 8 10 8Z" fill="var(--fill-0, #373734)"/>
</g>
</svg>
