<svg preserveAspectRatio="none" width="100%" height="100%" overflow="visible" style="display: block;" viewBox="0 0 20 20" fill="none" xmlns="http://www.w3.org/2000/svg">
<g id="Icon">
<path id="Vector" d="M10 2.5C11.9891 2.5 13.8968 3.29018 15.3033 4.6967C16.7098 6.10322 17.5 8.01088 17.5 10C17.5 11.9891 16.7098 13.8968 15.3033 15.3033C13.8968 16.7098 11.9891 17.5 10 17.5C8.01088 17.5 6.10322 16.7098 4.6967 15.3033C3.29018 13.8968 2.5 11.9891 2.5 10C2.5 8.01088 3.29018 6.10322 4.6967 4.6967C6.10322 3.29018 8.01088 2.5 10 2.5ZM10 3.5C8.27609 3.5 6.62279 4.18482 5.40381 5.40381C4.18482 6.62279 3.5 8.27609 3.5 10C3.5 11.7239 4.18482 13.3772 5.40381 14.5962C6.62279 15.8152 8.27609 16.5 10 16.5C11.7239 16.5 13.3772 15.8152 14.5962 14.5962C15.8152 13.3772 16.5 11.7239 16.5 10C16.5 8.27609 15.8152 6.62279 14.5962 5.40381C13.3772 4.18482 11.7239 3.5 10 3.5ZM9.646 6.646C9.72749 6.56426 9.83475 6.51322 9.94958 6.50156C10.0644 6.48989 10.1797 6.51831 10.276 6.582L10.354 6.646L12.854 9.146C12.9005 9.19242 12.9374 9.24755 12.9626 9.30823C12.9877 9.3689 13.0007 9.43395 13.0008 9.49965C13.0008 9.56534 12.9879 9.63041 12.9628 9.69112C12.9377 9.75184 12.9009 9.80701 12.8545 9.8535C12.8081 9.89999 12.753 9.93688 12.6923 9.96206C12.6316 9.98725 12.5666 10.0002 12.5009 10.0003C12.4352 10.0003 12.3701 9.98743 12.3094 9.96233C12.2487 9.93723 12.1935 9.90042 12.147 9.854L10.5 8.207V13L10.49 13.1C10.467 13.213 10.4057 13.3146 10.3164 13.3876C10.2271 13.4606 10.1153 13.5005 10 13.5005C9.88466 13.5005 9.77287 13.4606 9.68357 13.3876C9.59427 13.3146 9.53295 13.213 9.51 13.1L9.5 13V8.207L7.854 9.854C7.76011 9.94775 7.63283 10.0004 7.50015 10.0003C7.36746 10.0002 7.24025 9.94739 7.1465 9.8535C7.05275 9.75961 7.00013 9.63233 7.00022 9.49965C7.00032 9.36696 7.05311 9.23975 7.147 9.146L9.646 6.646Z" fill="var(--fill-0, #373734)"/>
</g>
</svg>
